<?xml version="1.0" ?><svg id="Layer_1" style="enable-background:new 0 0 193 193;" version="1.1" viewBox="0 0 193 193" xml:space="preserve" xmlns="http://www.w3.org/2000/svg" xmlns:xlink="http://www.w3.org/1999/xlink"><style type="text/css">
	.st0{clip-path:url(#SVGID_2_);}
	.st1{fill:#FFD15D;}
	.st2{fill:#DEDEDD;}
	.st3{fill:#48515A;}
	.st4{fill:#5FE0ED;}
	.st5{fill:#F58E70;}
	.st6{fill:#475059;}
</style><g><defs><rect height="193" id="SVGID_1_" width="193"/></defs><clipPath id="SVGID_2_"><use style="overflow:visible;" xlink:href="#SVGID_1_"/></clipPath><g class="st0"><g><path class="st1" d="M107.3,173.5h-18c-8.3,0-15-6.7-15-15v-3h48v3C122.3,166.8,115.6,173.5,107.3,173.5z"/><path class="st1" d="M107.3,174h-18c-8.5,0-15.5-7-15.5-15.5V155h49v3.5C122.8,167,115.8,174,107.3,174z M74.8,156v2.5     c0,8,6.5,14.5,14.5,14.5h18c8,0,14.5-6.5,14.5-14.5V156H74.8z"/></g><g><g><rect class="st2" height="8" width="56" x="69.7" y="144.5"/><path class="st2" d="M126.7,153.5h-58v-10h58V153.5z M70.7,151.5h54v-6h-54V151.5z"/></g><g><rect class="st3" height="2" width="64" x="65.7" y="143.5"/></g><g><path class="st3" d="M109.7,177.5H88.5c-5,0-9.7-1.9-13.2-5.5c-3.5-3.5-5.5-8.2-5.5-13.2v-6.3h2v6.3c0,4.4,1.7,8.6,4.9,11.8      c3.1,3.1,7.3,4.9,11.8,4.9h21.1c3.6-0.4,7.1-2.2,9.8-4.9c3.1-3.1,4.9-7.3,4.9-11.8v-6.3h2v6.3c0,5-1.9,9.7-5.5,13.2      C117.8,175.1,113.9,177,109.7,177.5L109.7,177.5z"/></g><g><rect class="st3" height="2" width="64" x="65.7" y="147.5"/></g><g><rect class="st3" height="2" width="64" x="65.7" y="151.5"/></g></g><g><circle class="st4" cx="29.3" cy="22.5" r="4"/></g><g><path class="st3" d="M164.4,167.5c-3.3,0-6-2.7-6-6c0-3.3,2.7-6,6-6c3.3,0,6,2.7,6,6C170.4,164.8,167.7,167.5,164.4,167.5z      M164.4,157.5c-2.2,0-4,1.8-4,4c0,2.2,1.8,4,4,4c2.2,0,4-1.8,4-4C168.4,159.3,166.6,157.5,164.4,157.5z"/></g><g><circle class="st1" cx="53.5" cy="172.5" r="4"/></g><g><g><g><rect class="st3" height="4" width="2" x="147.3" y="0.5"/></g><g><rect class="st3" height="4" width="2" x="147.3" y="10.5"/></g></g><g><g><rect class="st3" height="2" width="4" x="151.3" y="6.5"/></g><g><rect class="st3" height="2" width="4" x="141.3" y="6.5"/></g></g></g><g><g><g><rect class="st3" height="4" width="2" x="177.3" y="50.4"/></g><g><rect class="st3" height="4" width="2" x="177.3" y="60.4"/></g></g><g><g><rect class="st3" height="2" width="4" x="181.3" y="56.4"/></g><g><rect class="st3" height="2" width="4" x="171.3" y="56.4"/></g></g></g><g><g><g><rect class="st3" height="4" width="2" x="21.3" y="88.5"/></g><g><rect class="st3" height="4" width="2" x="21.3" y="98.5"/></g></g><g><g><rect class="st3" height="2" width="4" x="25.3" y="94.5"/></g><g><rect class="st3" height="2" width="4" x="15.3" y="94.5"/></g></g></g><g><path class="st3" d="M22.3,57.5c-2.2,0-4-1.8-4-4c0-2.2,1.8-4,4-4c2.2,0,4,1.8,4,4C26.3,55.7,24.5,57.5,22.3,57.5z M22.3,51.5     c-1.1,0-2,0.9-2,2c0,1.1,0.9,2,2,2c1.1,0,2-0.9,2-2C24.3,52.4,23.4,51.5,22.3,51.5z"/></g><g><g><g><rect class="st3" height="4" width="2" x="127.3" y="178.5"/></g><g><rect class="st3" height="4" width="2" x="127.3" y="188.5"/></g></g><g><g><rect class="st3" height="2" width="4" x="131.3" y="184.5"/></g><g><rect class="st3" height="2" width="4" x="121.3" y="184.5"/></g></g></g><g><circle class="st4" cx="139.5" cy="160.2" r="4"/></g><g><rect class="st3" height="8" width="2" x="94.5" y="176.5"/></g><g><rect class="st3" height="8" width="2" x="100.5" y="176.5"/></g><g><path class="st3" d="M95.5,188.5c-0.6,0-1-0.4-1-1c0-0.6,0.4-1,1-1c0.6,0,1,0.4,1,1v0C96.5,188.1,96.1,188.5,95.5,188.5z"/></g><g><path class="st3" d="M101.5,188.5c-0.6,0-1-0.4-1-1c0-0.6,0.4-1,1-1c0.6,0,1,0.4,1,1v0C102.5,188.1,102.1,188.5,101.5,188.5z"/></g><g><path class="st3" d="M95.5,192.5c-0.6,0-1-0.4-1-1c0-0.6,0.4-1,1-1c0.6,0,1,0.4,1,1v0C96.5,192.1,96.1,192.5,95.5,192.5z"/></g><g><path class="st3" d="M101.5,192.5c-0.6,0-1-0.4-1-1c0-0.6,0.4-1,1-1c0.6,0,1,0.4,1,1v0C102.5,192.1,102.1,192.5,101.5,192.5z"/></g><g><g><path class="st5" d="M28.5,169.6c-13.8,0-25-11.2-25-25c0-13.8,11.2-25,25-25c13.8,0,25,11.2,25,25      C53.5,158.4,42.3,169.6,28.5,169.6z M28.5,121.6c-12.7,0-23,10.3-23,23s10.3,23,23,23s23-10.3,23-23S41.2,121.6,28.5,121.6z"/></g><g><g><path class="st3" d="M48.5,145.6h-3.6c-0.6,0-1-0.4-1-1c0-0.6,0.4-1,1-1h3.6c0.6,0,1,0.4,1,1C49.5,145.1,49,145.6,48.5,145.6z"/></g><g><path class="st3" d="M48.5,145.6h-3.6c-0.6,0-1-0.4-1-1c0-0.6,0.4-1,1-1h3.6c0.6,0,1,0.4,1,1C49.5,145.1,49,145.6,48.5,145.6z"/></g><g><path class="st3" d="M38.6,163.1c-0.3,0-0.7-0.2-0.9-0.5l-1.8-3.1c-0.3-0.5-0.1-1.1,0.4-1.4c0.5-0.3,1.1-0.1,1.4,0.4l1.8,3.1       c0.3,0.5,0.1,1.1-0.4,1.4C39,163,38.8,163.1,38.6,163.1z"/></g><g><path class="st3" d="M42.6,137.1c-0.3,0-0.7-0.2-0.9-0.5c-0.3-0.5-0.1-1.1,0.4-1.4l3.1-1.8c0.5-0.3,1.1-0.1,1.4,0.4       c0.3,0.5,0.1,1.1-0.4,1.4l-3.1,1.8C43,137.1,42.8,137.1,42.6,137.1z"/></g><g><path class="st3" d="M46.1,155.4c-0.2,0-0.3,0-0.5-0.1l-3.1-1.8c-0.5-0.3-0.6-0.9-0.4-1.4c0.3-0.5,0.9-0.6,1.4-0.4l3.1,1.8       c0.5,0.3,0.6,0.9,0.4,1.4C46.7,155.2,46.4,155.4,46.1,155.4z"/></g><g><path class="st3" d="M36.6,130.9c-0.2,0-0.3,0-0.5-0.1c-0.5-0.3-0.6-0.9-0.4-1.4l1.8-3.1c0.3-0.5,0.9-0.6,1.4-0.4       c0.5,0.3,0.6,0.9,0.4,1.4l-1.8,3.1C37.3,130.7,36.9,130.9,36.6,130.9z"/></g><g><polygon class="st3" points="29.5,156.7 27.5,156.7 27.5,142.7 37.3,142.7 37.3,144.7 29.5,144.7      "/></g><g><path class="st3" d="M28.5,128.7c-0.6,0-1-0.4-1-1v-3.6c0-0.6,0.4-1,1-1c0.6,0,1,0.4,1,1v3.6C29.5,128.2,29.1,128.7,28.5,128.7       z"/></g><g><path class="st3" d="M28.5,166c-0.6,0-1-0.4-1-1v-3.6c0-0.6,0.4-1,1-1c0.6,0,1,0.4,1,1v3.6C29.5,165.6,29.1,166,28.5,166z"/></g><g><path class="st3" d="M12.1,145.6H8.5c-0.6,0-1-0.4-1-1c0-0.6,0.4-1,1-1h3.6c0.6,0,1,0.4,1,1C13.1,145.1,12.6,145.6,12.1,145.6z       "/></g><g><path class="st3" d="M28.5,128.7c-0.6,0-1-0.4-1-1v-3.6c0-0.6,0.4-1,1-1c0.6,0,1,0.4,1,1v3.6C29.5,128.2,29.1,128.7,28.5,128.7       z"/></g><g><path class="st3" d="M28.5,166c-0.6,0-1-0.4-1-1v-3.6c0-0.6,0.4-1,1-1c0.6,0,1,0.4,1,1v3.6C29.5,165.6,29.1,166,28.5,166z"/></g><g><path class="st3" d="M12.1,145.6H8.5c-0.6,0-1-0.4-1-1c0-0.6,0.4-1,1-1h3.6c0.6,0,1,0.4,1,1C13.1,145.1,12.6,145.6,12.1,145.6z       "/></g><g><path class="st3" d="M18.3,163.1c-0.2,0-0.3,0-0.5-0.1c-0.5-0.3-0.6-0.9-0.4-1.4l1.8-3.1c0.3-0.5,0.9-0.6,1.4-0.4       c0.5,0.3,0.6,0.9,0.4,1.4l-1.8,3.1C19,162.9,18.7,163.1,18.3,163.1z"/></g><g><path class="st3" d="M14.3,137.1c-0.2,0-0.3,0-0.5-0.1l-3.1-1.8c-0.5-0.3-0.6-0.9-0.4-1.4c0.3-0.5,0.9-0.6,1.4-0.4l3.1,1.8       c0.5,0.3,0.6,0.9,0.4,1.4C15,136.9,14.7,137.1,14.3,137.1z"/></g><g><path class="st3" d="M10.9,155.4c-0.3,0-0.7-0.2-0.9-0.5c-0.3-0.5-0.1-1.1,0.4-1.4l3.1-1.8c0.5-0.3,1.1-0.1,1.4,0.4       c0.3,0.5,0.1,1.1-0.4,1.4l-3.1,1.8C11.3,155.3,11.1,155.4,10.9,155.4z"/></g><g><path class="st3" d="M20.4,130.9c-0.3,0-0.7-0.2-0.9-0.5l-1.8-3.1c-0.3-0.5-0.1-1.1,0.4-1.4c0.5-0.3,1.1-0.1,1.4,0.4l1.8,3.1       c0.3,0.5,0.1,1.1-0.4,1.4C20.7,130.9,20.6,130.9,20.4,130.9z"/></g></g></g><g><path class="st3" d="M97.1,131.5c-0.5,0-1-0.5-1-1l0,0c0-0.5,0.5-1,1-1l0,0c0.5,0,1,0.5,1,1l0,0C98.1,131,97.7,131.5,97.1,131.5     L97.1,131.5C97.1,131.5,97.1,131.5,97.1,131.5z M100.1,130.4c0-0.5,0.4-1,0.9-1.1l0,0c0.5,0,1,0.4,1.1,0.9l0,0     c0,0.5-0.4,1-0.9,1.1l0,0c0,0,0,0-0.1,0l0,0C100.6,131.4,100.2,131,100.1,130.4z M93,131.4c-0.5,0-1-0.5-0.9-1.1l0,0     c0-0.5,0.5-1,1.1-0.9l0,0c0,0,0,0,0,0l0,0c0.5,0,1,0.5,0.9,1.1l0,0C94.1,130.9,93.6,131.4,93,131.4L93,131.4     C93.1,131.4,93.1,131.4,93,131.4z M104.1,130.1c-0.1-0.5,0.3-1,0.9-1.1l0,0c0.5-0.1,1,0.3,1.1,0.9l0,0c0.1,0.5-0.3,1-0.9,1.1l0,0     c0,0-0.1,0-0.1,0l0,0C104.6,131,104.2,130.6,104.1,130.1z M89,130.9L89,130.9c-0.6-0.1-0.9-0.6-0.9-1.1l0,0     c0.1-0.6,0.6-0.9,1.1-0.9l0,0l0,0l0,0c0.5,0.1,0.9,0.6,0.8,1.1l0,0c-0.1,0.5-0.5,0.9-1,0.9l0,0C89.1,130.9,89,130.9,89,130.9z      M108.1,129.5c-0.1-0.5,0.2-1.1,0.8-1.2l0,0c0.5-0.1,1.1,0.2,1.2,0.8l0,0c0.1,0.5-0.2,1.1-0.8,1.2l0,0c-0.1,0-0.1,0-0.2,0l0,0     C108.6,130.3,108.2,130,108.1,129.5z M85,130.2c-0.5-0.1-0.9-0.6-0.8-1.2l0,0c0.1-0.5,0.6-0.9,1.2-0.8l0,0     c0.5,0.1,0.9,0.6,0.8,1.2l0,0c-0.1,0.5-0.5,0.8-1,0.8l0,0C85.1,130.3,85,130.3,85,130.2z M112,128.7c-0.1-0.5,0.2-1.1,0.7-1.2     l0,0c0.5-0.1,1.1,0.2,1.2,0.7l0,0c0.1,0.5-0.2,1.1-0.7,1.2l0,0c-0.1,0-0.2,0-0.3,0l0,0C112.5,129.4,112.1,129.1,112,128.7z      M81,129.3c-0.5-0.1-0.8-0.7-0.7-1.2l0,0c0.1-0.5,0.7-0.8,1.2-0.7l0,0l0,0l0,0c0.5,0.1,0.8,0.7,0.7,1.2l0,0     c-0.1,0.4-0.5,0.7-1,0.7l0,0C81.2,129.3,81.1,129.3,81,129.3z M115.9,127.6c-0.2-0.5,0.1-1.1,0.6-1.3l0,0     c0.5-0.2,1.1,0.1,1.3,0.6l0,0c0.2,0.5-0.1,1.1-0.6,1.3v0c-0.1,0-0.2,0.1-0.3,0.1l0,0C116.4,128.2,116,128,115.9,127.6z      M77.1,128.1c-0.5-0.2-0.8-0.8-0.6-1.3l0,0c0.2-0.5,0.8-0.8,1.3-0.6l0,0c0.5,0.2,0.8,0.8,0.6,1.3l0,0c-0.1,0.4-0.5,0.7-0.9,0.7     l0,0C77.3,128.1,77.2,128.1,77.1,128.1z M119.6,126.2c-0.2-0.5,0-1.1,0.5-1.3l0,0c0.5-0.2,1.1,0,1.3,0.5l0,0     c0.2,0.5,0,1.1-0.5,1.3l0,0c-0.1,0.1-0.3,0.1-0.4,0.1l0,0C120.2,126.8,119.8,126.6,119.6,126.2z M73.3,126.6L73.3,126.6     c-0.5-0.2-0.7-0.8-0.5-1.3l0,0c0.2-0.5,0.8-0.7,1.3-0.5l0,0l0,0l0,0c0.5,0.2,0.7,0.8,0.5,1.3l0,0c-0.2,0.4-0.5,0.6-0.9,0.6l0,0     C73.6,126.7,73.5,126.6,73.3,126.6z M123.3,124.6c-0.2-0.5,0-1.1,0.4-1.3l0,0c0.5-0.2,1.1,0,1.3,0.4l0,0c0.2,0.5,0.1,1.1-0.4,1.3     l0,0c-0.1,0.1-0.3,0.1-0.4,0.1l0,0C123.8,125.1,123.5,124.9,123.3,124.6z M69.6,124.8c-0.5-0.2-0.7-0.8-0.4-1.3l0,0     c0.2-0.5,0.9-0.7,1.4-0.4l0,0l0,0l0,0c0.5,0.2,0.7,0.9,0.4,1.3l0,0c-0.2,0.3-0.5,0.5-0.9,0.5l0,0     C69.9,124.9,69.8,124.9,69.6,124.8z M126.9,122.7c-0.3-0.5-0.1-1.1,0.4-1.4l0,0l0,0l0,0c0.5-0.3,1.1-0.1,1.4,0.3l0,0     c0.3,0.5,0.1,1.1-0.4,1.4v0c-0.2,0.1-0.3,0.1-0.5,0.1l0,0C127.4,123.2,127,123,126.9,122.7z M66.1,122.9     c-0.5-0.3-0.6-0.9-0.3-1.4l0,0c0.3-0.5,0.9-0.6,1.4-0.3l0,0c0.5,0.3,0.6,0.9,0.4,1.4l0,0c-0.2,0.3-0.5,0.5-0.9,0.5l0,0     C66.4,123,66.3,123,66.1,122.9z M130.3,120.6c-0.3-0.5-0.2-1.1,0.3-1.4l0,0l0,0l0,0c0.5-0.3,1.1-0.2,1.4,0.3l0,0     c0.3,0.5,0.2,1.1-0.3,1.4l0,0c-0.2,0.1-0.4,0.2-0.6,0.2l0,0C130.8,121.1,130.5,120.9,130.3,120.6z M62.7,120.6L62.7,120.6     c-0.4-0.3-0.6-0.9-0.2-1.4l0,0c0.3-0.4,0.9-0.6,1.4-0.2l0,0c0.5,0.3,0.6,0.9,0.3,1.4l0,0c-0.2,0.3-0.5,0.4-0.8,0.4l0,0     C63,120.8,62.8,120.8,62.7,120.6z M133.5,118.3c-0.3-0.4-0.3-1.1,0.2-1.4l0,0l0,0l0,0c0.4-0.3,1.1-0.3,1.4,0.2l0,0     c0.4,0.4,0.3,1.1-0.2,1.4l0,0c-0.2,0.1-0.4,0.2-0.6,0.2l0,0C134,118.7,133.7,118.6,133.5,118.3z M59.4,118.2L59.4,118.2     c-0.4-0.3-0.5-1-0.2-1.4l0,0c0.3-0.4,1-0.5,1.4-0.2l0,0c0.4,0.3,0.5,1,0.2,1.4l0,0c-0.2,0.2-0.5,0.4-0.8,0.4l0,0     C59.8,118.4,59.6,118.4,59.4,118.2z M136.7,115.8c-0.4-0.4-0.3-1,0.1-1.4l0,0c0.4-0.4,1-0.3,1.4,0.1l0,0c0.4,0.4,0.3,1-0.1,1.4     l0,0c-0.2,0.2-0.4,0.2-0.7,0.2l0,0C137.1,116.1,136.9,116,136.7,115.8z M56.3,115.6c-0.4-0.4-0.4-1-0.1-1.4l0,0     c0.4-0.4,1-0.4,1.4-0.1l0,0c0.4,0.4,0.4,1,0.1,1.4l0,0c-0.2,0.2-0.5,0.3-0.7,0.3l0,0C56.7,115.8,56.5,115.7,56.3,115.6z      M139.6,113.1c-0.4-0.4-0.4-1,0-1.4l0,0c0.4-0.4,1-0.4,1.4,0l0,0c0.4,0.4,0.4,1,0,1.4l0,0c-0.2,0.2-0.5,0.3-0.7,0.3l0,0     C140,113.4,139.8,113.2,139.6,113.1z M53.4,112.7c-0.4-0.4-0.4-1,0-1.4l0,0c0.4-0.4,1-0.4,1.4,0l0,0c0.4,0.4,0.4,1,0,1.4l0,0     c-0.2,0.2-0.4,0.3-0.7,0.3l0,0C53.8,113,53.6,112.9,53.4,112.7z M142.3,110.1c-0.4-0.4-0.5-1-0.1-1.4l0,0c0.4-0.4,1-0.5,1.4-0.1     l0,0c0.4,0.4,0.5,1,0.1,1.4l0,0c-0.2,0.2-0.5,0.3-0.8,0.3l0,0C142.8,110.4,142.5,110.3,142.3,110.1z M50.7,109.7     c-0.4-0.4-0.3-1.1,0.1-1.4l0,0c0.4-0.4,1.1-0.3,1.4,0.1l0,0c0.4,0.4,0.3,1-0.1,1.4l0,0c-0.2,0.2-0.4,0.2-0.6,0.2l0,0     C51.1,110.1,50.9,109.9,50.7,109.7z M144.9,107.1c-0.4-0.3-0.5-1-0.2-1.4l0,0c0.3-0.4,1-0.5,1.4-0.2l0,0c0.4,0.3,0.5,1,0.2,1.4     l0,0c-0.2,0.3-0.5,0.4-0.8,0.4l0,0C145.3,107.3,145.1,107.2,144.9,107.1z M48.1,106.5L48.1,106.5c-0.3-0.4-0.2-1.1,0.2-1.4l0,0     c0.5-0.3,1.1-0.2,1.4,0.2l0,0l0,0l0,0c0.3,0.5,0.2,1.1-0.2,1.4l0,0c-0.2,0.1-0.4,0.2-0.6,0.2l0,0     C48.6,106.9,48.3,106.8,48.1,106.5z M147.3,103.8c-0.5-0.3-0.6-0.9-0.3-1.4l0,0c0,0,0,0,0,0l0,0c0.3-0.5,0.9-0.6,1.4-0.3l0,0     c0.5,0.3,0.6,0.9,0.3,1.4l0,0c-0.2,0.3-0.5,0.4-0.8,0.4l0,0C147.7,104,147.5,103.9,147.3,103.8z M45.8,103.1L45.8,103.1     c-0.3-0.5-0.2-1.1,0.3-1.4l0,0c0.5-0.3,1.1-0.2,1.4,0.3l0,0l0,0l0,0c0.3,0.5,0.2,1.1-0.3,1.4l0,0c-0.2,0.1-0.4,0.2-0.5,0.2l0,0     C46.3,103.6,46,103.4,45.8,103.1z M149.4,100.4c-0.5-0.3-0.6-0.9-0.4-1.4l0,0c0.3-0.5,0.9-0.6,1.4-0.4l0,0     c0.5,0.3,0.7,0.9,0.4,1.4l0,0c-0.2,0.3-0.5,0.5-0.9,0.5l0,0C149.8,100.6,149.6,100.5,149.4,100.4z M43.8,99.6L43.8,99.6     c-0.3-0.5-0.1-1.1,0.4-1.4l0,0c0.5-0.3,1.1-0.1,1.4,0.4l0,0c0.3,0.5,0.1,1.1-0.4,1.4l0,0c-0.2,0.1-0.3,0.1-0.5,0.1l0,0     C44.3,100.2,43.9,100,43.8,99.6z M151.3,96.9c-0.5-0.2-0.7-0.8-0.5-1.3l0,0c0.2-0.5,0.8-0.7,1.3-0.5l0,0c0.5,0.2,0.7,0.8,0.5,1.3     l0,0c-0.2,0.4-0.5,0.6-0.9,0.6l0,0C151.6,97,151.5,97,151.3,96.9z M41.9,96c-0.2-0.5,0-1.1,0.5-1.3l0,0c0.5-0.2,1.1,0,1.3,0.5     l0,0c0,0,0,0,0,0l0,0c0.2,0.5,0,1.1-0.5,1.3l0,0c-0.1,0.1-0.3,0.1-0.4,0.1l0,0C42.4,96.6,42.1,96.4,41.9,96z M153,93.2     c-0.5-0.2-0.8-0.8-0.6-1.3l0,0c0.2-0.5,0.8-0.8,1.3-0.6l0,0c0.5,0.2,0.8,0.8,0.6,1.3l0,0c-0.1,0.4-0.5,0.6-0.9,0.6l0,0     C153.2,93.3,153.1,93.3,153,93.2z M40.3,92.2c-0.2-0.5,0.1-1.1,0.6-1.3l0,0c0.5-0.2,1.1,0.1,1.3,0.6l0,0c0,0,0,0,0,0l0,0     c0.2,0.5,0,1.1-0.6,1.3l0,0c-0.1,0-0.2,0.1-0.4,0.1l0,0C40.9,92.9,40.5,92.6,40.3,92.2z M154.3,89.5c-0.5-0.2-0.8-0.7-0.7-1.2     l0,0c0.2-0.5,0.7-0.8,1.2-0.7l0,0c0.5,0.2,0.8,0.7,0.7,1.2l0,0c-0.1,0.4-0.5,0.7-1,0.7l0,0C154.5,89.5,154.4,89.5,154.3,89.5z      M39,88.4c-0.2-0.5,0.1-1.1,0.7-1.2l0,0c0.5-0.2,1.1,0.1,1.2,0.7l0,0c0.2,0.5-0.1,1.1-0.7,1.2l0,0c-0.1,0-0.2,0-0.3,0l0,0     C39.5,89.1,39.1,88.8,39,88.4z M155.4,85.6c-0.5-0.1-0.9-0.7-0.8-1.2l0,0c0,0,0,0,0-0.1l0,0c0,0,0-0.1,0-0.1l0,0     c0.1-0.5,0.7-0.9,1.2-0.7l0,0c0.5,0.1,0.9,0.7,0.7,1.2l0,0c0,0,0,0,0,0.1l0,0c0,0,0,0.1,0,0.1l0,0c-0.1,0.5-0.5,0.8-1,0.8l0,0     C155.5,85.6,155.5,85.6,155.4,85.6z M37.9,84.4c-0.1-0.5,0.2-1.1,0.7-1.2l0,0c0.5-0.1,1.1,0.2,1.2,0.7l0,0     c0.1,0.5-0.2,1.1-0.8,1.2l0,0c-0.1,0-0.1,0-0.2,0l0,0C38.4,85.2,38,84.9,37.9,84.4z M156.3,81.6c-0.5-0.1-0.9-0.6-0.8-1.2l0,0     l0,0l0,0c0.1-0.5,0.6-0.9,1.2-0.8l0,0c0.5,0.1,0.9,0.6,0.8,1.1l0,0c-0.1,0.5-0.5,0.8-1,0.8l0,0C156.4,81.6,156.3,81.6,156.3,81.6     z M37.1,80.5c-0.1-0.6,0.3-1.1,0.8-1.2l0,0c0.6-0.1,1.1,0.3,1.1,0.8l0,0l0,0l0,0c0.1,0.5-0.3,1.1-0.8,1.1l0,0c-0.1,0-0.1,0-0.2,0     l0,0C37.6,81.3,37.2,80.9,37.1,80.5z M156.9,77.6c-0.5-0.1-0.9-0.5-0.9-1.1l0,0c0.1-0.5,0.6-0.9,1.1-0.9l0,0     c0.5,0.1,1,0.6,0.9,1.1l0,0c-0.1,0.5-0.5,0.9-1,0.9l0,0C157,77.6,156.9,77.6,156.9,77.6z M157.2,73.6c-0.5,0-1-0.5-1-1l0,0     c0-0.5,0.5-1,1-1l0,0c0.5,0,1,0.5,1,1l0,0C158.2,73.2,157.8,73.6,157.2,73.6L157.2,73.6C157.2,73.6,157.2,73.6,157.2,73.6z      M156.3,68.6c0-0.5,0.4-1,1-1l0,0c0.5,0,1,0.4,1,1l0,0c0,0.6-0.4,1-1,1l0,0c0,0,0,0,0,0l0,0C156.7,69.6,156.3,69.2,156.3,68.6z      M156,64.7c0-0.6,0.4-1,0.9-1.1l0,0c0.6-0.1,1,0.4,1.1,0.9l0,0c0.1,0.5-0.4,1-0.9,1.1l0,0c0,0-0.1,0-0.1,0l0,0     C156.5,65.6,156.1,65.2,156,64.7z M155.5,60.8c-0.1-0.5,0.3-1.1,0.8-1.1l0,0c0.5-0.1,1.1,0.3,1.1,0.8l0,0     c0.1,0.5-0.3,1.1-0.8,1.1l0,0c-0.1,0-0.1,0-0.2,0l0,0C156,61.6,155.6,61.3,155.5,60.8z M38,61.3c-0.5-0.1-0.9-0.6-0.8-1.1l0,0     c0.1-0.5,0.6-0.9,1.2-0.8l0,0c0.5,0.1,0.9,0.6,0.8,1.1l0,0c-0.1,0.5-0.5,0.8-1,0.8l0,0C38.1,61.3,38,61.3,38,61.3z M154.7,56.9     c-0.1-0.5,0.2-1.1,0.7-1.2l0,0c0.5-0.1,1.1,0.2,1.2,0.7l0,0c0.1,0.5-0.2,1.1-0.7,1.2l0,0c-0.1,0-0.2,0-0.2,0l0,0     C155.2,57.7,154.8,57.4,154.7,56.9z M38.7,57.4c-0.5-0.1-0.9-0.7-0.7-1.2l0,0c0.1-0.5,0.7-0.9,1.2-0.7l0,0     c0.5,0.1,0.9,0.7,0.7,1.2l0,0c-0.1,0.5-0.5,0.8-1,0.8l0,0C38.9,57.4,38.8,57.4,38.7,57.4z M153.7,53.1c-0.2-0.5,0.1-1.1,0.7-1.2     l0,0c0.5-0.2,1.1,0.1,1.2,0.7l0,0c0.2,0.5-0.1,1.1-0.7,1.2l0,0c-0.1,0-0.2,0-0.3,0l0,0C154.2,53.8,153.8,53.5,153.7,53.1z      M39.7,53.5c-0.5-0.2-0.8-0.7-0.6-1.2l0,0c0.2-0.5,0.7-0.8,1.2-0.7l0,0c0.5,0.2,0.8,0.7,0.6,1.2l0,0c0,0,0,0,0,0l0,0     c-0.1,0.4-0.5,0.7-1,0.7l0,0C39.9,53.6,39.8,53.5,39.7,53.5z M152.4,49.4c-0.2-0.5,0.1-1.1,0.6-1.3l0,0c0.5-0.2,1.1,0.1,1.3,0.6     l0,0c0.2,0.5-0.1,1.1-0.6,1.3l0,0c-0.1,0-0.2,0.1-0.4,0.1l0,0C152.9,50,152.5,49.8,152.4,49.4z M41,49.7     c-0.5-0.2-0.8-0.8-0.6-1.3l0,0c0.2-0.5,0.8-0.8,1.3-0.6l0,0c0.5,0.2,0.8,0.8,0.6,1.3l0,0c-0.2,0.4-0.5,0.6-0.9,0.6l0,0     C41.2,49.8,41.1,49.7,41,49.7z M150.9,45.8L150.9,45.8L150.9,45.8c-0.2-0.5,0-1.1,0.5-1.3l0,0c0.5-0.2,1.1,0,1.3,0.5l0,0     c0.2,0.5,0,1.1-0.5,1.3l0,0c-0.1,0.1-0.3,0.1-0.4,0.1l0,0C151.4,46.3,151,46.1,150.9,45.8z M42.5,46c-0.5-0.2-0.7-0.8-0.5-1.3     l0,0c0.2-0.5,0.8-0.7,1.3-0.5l0,0c0.5,0.2,0.7,0.8,0.5,1.3l0,0c-0.2,0.4-0.5,0.6-0.9,0.6l0,0C42.8,46.1,42.6,46.1,42.5,46z      M149.1,42.2c-0.3-0.5-0.1-1.1,0.4-1.4l0,0c0.5-0.3,1.1-0.1,1.4,0.4l0,0c0.3,0.5,0.1,1.1-0.4,1.4l0,0c-0.1,0.1-0.3,0.1-0.5,0.1     l0,0C149.6,42.8,149.3,42.6,149.1,42.2z M44.3,42.4c-0.5-0.3-0.7-0.9-0.4-1.4l0,0c0.3-0.5,0.9-0.7,1.4-0.4l0,0     c0.5,0.3,0.7,0.9,0.4,1.4l0,0l0,0l0,0c-0.2,0.3-0.5,0.5-0.9,0.5l0,0C44.6,42.5,44.4,42.5,44.3,42.4z M147.1,38.8     c-0.3-0.5-0.2-1.1,0.3-1.4l0,0c0.5-0.3,1.1-0.2,1.4,0.3l0,0c0.3,0.5,0.2,1.1-0.3,1.4l0,0c-0.2,0.1-0.4,0.2-0.5,0.2l0,0     C147.6,39.3,147.2,39.1,147.1,38.8z M46.3,38.9c-0.5-0.3-0.6-0.9-0.3-1.4l0,0c0.3-0.5,0.9-0.6,1.4-0.3l0,0     c0.5,0.3,0.6,0.9,0.3,1.4l0,0l0,0l0,0c-0.2,0.3-0.5,0.5-0.8,0.5l0,0C46.6,39.1,46.4,39,46.3,38.9z M144.8,35.6     c-0.3-0.5-0.2-1.1,0.2-1.4l0,0c0.4-0.3,1.1-0.2,1.4,0.2l0,0c0.3,0.4,0.2,1.1-0.2,1.4l0,0c-0.2,0.1-0.4,0.2-0.6,0.2l0,0     C145.3,36,145,35.9,144.8,35.6z M48.5,35.6c-0.4-0.3-0.5-1-0.2-1.4l0,0c0.3-0.5,1-0.5,1.4-0.2l0,0c0.4,0.3,0.5,1,0.2,1.4l0,0     c-0.2,0.3-0.5,0.4-0.8,0.4l0,0C48.9,35.8,48.7,35.7,48.5,35.6z M142.4,32.5L142.4,32.5L142.4,32.5c-0.4-0.4-0.3-1,0.1-1.4l0,0     c0.4-0.4,1.1-0.3,1.4,0.1l0,0c0.4,0.4,0.3,1-0.1,1.4l0,0c-0.2,0.2-0.4,0.2-0.6,0.2l0,0C142.9,32.9,142.6,32.7,142.4,32.5z      M50.9,32.4c-0.4-0.4-0.5-1-0.1-1.4l0,0c0.4-0.4,1-0.5,1.4-0.1l0,0c0.4,0.4,0.5,1,0.1,1.4l0,0c-0.2,0.2-0.5,0.4-0.8,0.4l0,0     C51.3,32.6,51.1,32.6,50.9,32.4z M139.7,29.6L139.7,29.6L139.7,29.6c-0.4-0.4-0.4-1,0-1.4l0,0c0.4-0.4,1-0.4,1.4,0l0,0     c0.4,0.4,0.4,1,0,1.4l0,0c-0.2,0.2-0.4,0.3-0.7,0.3l0,0C140.2,29.9,139.9,29.8,139.7,29.6z M53.6,29.4c-0.4-0.4-0.4-1,0-1.4l0,0     c0.4-0.4,1-0.4,1.4,0l0,0c0.4,0.4,0.4,1,0,1.4l0,0c-0.2,0.2-0.5,0.3-0.7,0.3l0,0C54,29.7,53.8,29.6,53.6,29.4z M136.9,26.8     c-0.4-0.4-0.4-1-0.1-1.4l0,0c0.4-0.4,1-0.4,1.4-0.1l0,0c0.4,0.4,0.4,1,0.1,1.4l0,0c-0.2,0.2-0.5,0.3-0.8,0.3l0,0     C137.3,27.1,137.1,27,136.9,26.8z M56.4,26.6c-0.4-0.4-0.3-1,0.1-1.4l0,0c0.4-0.4,1-0.3,1.4,0.1l0,0c0.4,0.4,0.3,1-0.1,1.4l0,0     c-0.2,0.2-0.4,0.3-0.7,0.3l0,0C56.9,26.9,56.6,26.8,56.4,26.6z M133.9,24.3c-0.4-0.3-0.5-1-0.2-1.4l0,0c0.3-0.4,1-0.5,1.4-0.2     l0,0c0.4,0.3,0.5,1,0.2,1.4l0,0c-0.2,0.2-0.5,0.4-0.8,0.4l0,0C134.3,24.5,134.1,24.4,133.9,24.3z M59.4,23.9     c-0.3-0.4-0.3-1.1,0.2-1.4l0,0c0.4-0.3,1.1-0.3,1.4,0.2l0,0c0.3,0.4,0.3,1.1-0.2,1.4l0,0c-0.2,0.1-0.4,0.2-0.6,0.2l0,0     C59.9,24.3,59.6,24.2,59.4,23.9z M130.7,21.9c-0.4-0.3-0.6-0.9-0.2-1.4l0,0c0.3-0.5,0.9-0.6,1.4-0.2l0,0c0.5,0.3,0.6,0.9,0.2,1.4     l0,0c-0.2,0.3-0.5,0.4-0.8,0.4l0,0C131.1,22.1,130.9,22.1,130.7,21.9z M62.6,21.5c-0.3-0.5-0.2-1.1,0.3-1.4l0,0     c0.5-0.3,1.1-0.2,1.4,0.3l0,0c0.3,0.5,0.2,1.1-0.3,1.4l0,0c-0.2,0.1-0.4,0.2-0.6,0.2l0,0C63.1,21.9,62.8,21.8,62.6,21.5z      M127.4,19.8c-0.5-0.3-0.6-0.9-0.3-1.4l0,0c0.3-0.5,0.9-0.6,1.4-0.3l0,0c0.5,0.3,0.6,0.9,0.3,1.4l0,0c-0.2,0.3-0.5,0.5-0.9,0.5     l0,0C127.8,19.9,127.6,19.9,127.4,19.8z M66,19.3c-0.3-0.5-0.1-1.1,0.4-1.4l0,0c0.5-0.3,1.1-0.1,1.4,0.3l0,0     c0.3,0.5,0.1,1.1-0.4,1.4l0,0c-0.2,0.1-0.3,0.1-0.5,0.1l0,0C66.5,19.8,66.1,19.6,66,19.3z M124,17.9c-0.5-0.3-0.7-0.9-0.4-1.4     l0,0c0.2-0.5,0.9-0.7,1.3-0.4l0,0c0.5,0.2,0.7,0.9,0.4,1.4l0,0c-0.2,0.4-0.5,0.5-0.9,0.5l0,0C124.3,18,124.1,18,124,17.9z      M69.5,17.3c-0.2-0.5,0-1.1,0.4-1.3l0,0c0.5-0.2,1.1,0,1.3,0.5l0,0c0.2,0.5,0,1.1-0.4,1.3l0,0c-0.1,0.1-0.3,0.1-0.5,0.1l0,0     C70,17.9,69.6,17.7,69.5,17.3z M120.4,16.2c-0.5-0.2-0.7-0.8-0.5-1.3l0,0c0.2-0.5,0.8-0.7,1.3-0.5l0,0c0.5,0.2,0.7,0.8,0.5,1.3     l0,0c-0.2,0.4-0.5,0.6-0.9,0.6l0,0C120.7,16.3,120.5,16.3,120.4,16.2z M73.1,15.6c-0.2-0.5,0-1.1,0.5-1.3l0,0     c0.5-0.2,1.1,0,1.3,0.5l0,0c0.2,0.5,0,1.1-0.5,1.3l0,0l0,0l0,0c-0.1,0.1-0.3,0.1-0.4,0.1l0,0C73.6,16.2,73.2,16,73.1,15.6z      M116.7,14.8c-0.5-0.2-0.8-0.8-0.6-1.3l0,0c0.2-0.5,0.8-0.8,1.3-0.6l0,0c0.5,0.2,0.8,0.8,0.6,1.3l0,0c-0.1,0.4-0.5,0.7-0.9,0.7     l0,0C117,14.9,116.8,14.8,116.7,14.8z M76.8,14.1c-0.2-0.5,0.1-1.1,0.6-1.3l0,0c0.5-0.2,1.1,0.1,1.3,0.6l0,0     c0.2,0.5-0.1,1.1-0.6,1.3l0,0c0,0,0,0,0,0l0,0c-0.1,0-0.2,0.1-0.3,0.1l0,0C77.3,14.8,76.9,14.5,76.8,14.1z M113,13.6     c-0.5-0.1-0.9-0.7-0.7-1.2l0,0c0.1-0.5,0.7-0.8,1.2-0.7l0,0c0.5,0.1,0.9,0.7,0.7,1.2l0,0c-0.1,0.4-0.5,0.7-1,0.7l0,0     C113.2,13.7,113.1,13.6,113,13.6z M80.6,12.8c-0.1-0.5,0.2-1.1,0.7-1.2l0,0c0.5-0.1,1.1,0.2,1.2,0.7l0,0c0.1,0.5-0.2,1.1-0.7,1.2     l0,0c-0.1,0-0.2,0-0.3,0l0,0C81.1,13.6,80.7,13.3,80.6,12.8z M109.2,12.7c-0.5-0.1-0.9-0.6-0.8-1.2l0,0c0.1-0.5,0.6-0.9,1.2-0.8     l0,0c0.5,0.1,0.9,0.6,0.8,1.2l0,0c-0.1,0.5-0.5,0.8-1,0.8l0,0C109.3,12.7,109.2,12.7,109.2,12.7z M84.5,11.9     c-0.1-0.5,0.2-1.1,0.8-1.2l0,0c0.6-0.1,1.1,0.2,1.2,0.8l0,0c0.1,0.5-0.2,1.1-0.8,1.2l0,0c-0.1,0-0.1,0-0.2,0l0,0     C85,12.7,84.6,12.3,84.5,11.9z M105.3,12c-0.6-0.1-0.9-0.6-0.9-1.1l0,0c0.1-0.5,0.6-0.9,1.1-0.9h0c0.5,0.1,0.9,0.6,0.8,1.1l0,0     c-0.1,0.5-0.5,0.9-1,0.9l0,0C105.4,12,105.3,12,105.3,12z M88.4,11.1c-0.1-0.5,0.3-1,0.9-1.1l0,0c0.5-0.1,1,0.3,1.1,0.9l0,0     c0.1,0.5-0.3,1-0.9,1.1l0,0c0,0-0.1,0-0.1,0l0,0C88.9,12,88.5,11.6,88.4,11.1z M101.4,11.6c-0.6,0-1-0.5-0.9-1.1l0,0     c0-0.6,0.5-1,1.1-0.9l0,0c0.5,0,1,0.5,0.9,1.1l0,0C102.4,11.2,101.9,11.6,101.4,11.6L101.4,11.6     C101.4,11.6,101.4,11.6,101.4,11.6z M92.4,10.7c0-0.5,0.4-1,0.9-1.1l0,0c0.5,0,1,0.4,1.1,0.9l0,0c0,0.6-0.4,1-0.9,1.1l0,0     c0,0,0,0-0.1,0l0,0C92.9,11.6,92.4,11.2,92.4,10.7z M97.4,11.5c-0.6,0-1-0.5-1-1l0,0c0-0.5,0.5-1,1-1l0,0c0.6,0,1,0.5,1,1l0,0     C98.4,11,98,11.5,97.4,11.5L97.4,11.5C97.4,11.5,97.4,11.5,97.4,11.5z"/></g><g><g><path class="st6" d="M113.2,76.4l-1.9-0.6c1.2-3.7,0.9-7.7-0.9-11.2c-1.8-3.5-4.8-6.1-8.6-7.3c-7.7-2.5-16.1,1.7-18.6,9.4      L81.4,66c2.9-8.8,12.3-13.6,21.1-10.7c4.3,1.4,7.7,4.3,9.7,8.3C114.2,67.6,114.6,72.1,113.2,76.4z"/></g><g><path class="st5" d="M97.3,82.6c-6.3,0-11.5-5.2-11.5-11.5c0-6.3,5.2-11.5,11.5-11.5c6.3,0,11.5,5.2,11.5,11.5      C108.8,77.4,103.6,82.6,97.3,82.6z M97.3,62.6c-4.7,0-8.5,3.8-8.5,8.5c0,4.7,3.8,8.5,8.5,8.5c4.7,0,8.5-3.8,8.5-8.5      C105.8,66.4,102,62.6,97.3,62.6z"/></g><g><path class="st3" d="M97.3,92.1c0-0.6,0.4-1,0.9-1.1l0,0c0.6,0,1,0.4,1.1,1l0,0c0,0.6-0.4,1-1,1l0,0c0,0,0,0,0,0l0,0      C97.8,93.1,97.3,92.7,97.3,92.1z M94.2,92.9L94.2,92.9L94.2,92.9c-0.5-0.1-0.9-0.6-0.8-1.1l0,0c0.1-0.5,0.6-0.9,1.1-0.8l0,0      c0.5,0.1,0.9,0.6,0.9,1.1l0,0c-0.1,0.5-0.5,0.9-1,0.9l0,0C94.3,92.9,94.2,92.9,94.2,92.9z M101.3,91.7c-0.1-0.5,0.2-1.1,0.7-1.2      l0,0c0.5-0.1,1.1,0.2,1.2,0.7l0,0c0.1,0.5-0.2,1.1-0.7,1.2l0,0c-0.1,0-0.2,0-0.2,0l0,0C101.8,92.5,101.4,92.2,101.3,91.7z       M90.1,91.9c-0.5-0.2-0.8-0.8-0.6-1.3l0,0c0.2-0.5,0.8-0.8,1.3-0.6l0,0c0.5,0.2,0.8,0.8,0.6,1.3l0,0c-0.1,0.4-0.5,0.7-0.9,0.7      l0,0C90.3,91.9,90.2,91.9,90.1,91.9z M105.1,90.6c-0.2-0.5,0-1.1,0.5-1.3l0,0c0.5-0.2,1.1,0,1.3,0.5l0,0c0.2,0.5,0,1.1-0.5,1.3      l0,0c-0.1,0.1-0.3,0.1-0.4,0.1l0,0C105.6,91.2,105.3,91,105.1,90.6z M86.3,90.2c-0.5-0.3-0.6-0.9-0.4-1.4l0,0      c0.3-0.5,0.9-0.6,1.4-0.4l0,0c0.5,0.3,0.6,0.9,0.4,1.4l0,0c-0.2,0.3-0.5,0.5-0.9,0.5l0,0C86.6,90.3,86.5,90.2,86.3,90.2z       M108.7,88.8c-0.3-0.4-0.2-1.1,0.2-1.4l0,0c0.5-0.3,1.1-0.2,1.4,0.2l0,0c0.3,0.4,0.2,1.1-0.2,1.4l0,0c0,0,0,0,0,0l0,0      c-0.2,0.1-0.4,0.2-0.6,0.2l0,0C109.2,89.2,108.9,89.1,108.7,88.8z M82.9,87.7c-0.4-0.4-0.5-1-0.1-1.4l0,0c0.4-0.4,1-0.5,1.4-0.1      l0,0c0.4,0.4,0.5,1,0.1,1.4l0,0c-0.2,0.2-0.5,0.3-0.8,0.3l0,0C83.3,88,83.1,87.9,82.9,87.7z M111.8,86.3c-0.4-0.4-0.4-1,0-1.4      l0,0c0.4-0.4,1-0.4,1.4,0l0,0c0.4,0.4,0.4,1,0,1.4l0,0c-0.2,0.2-0.5,0.3-0.7,0.3l0,0C112.2,86.6,112,86.5,111.8,86.3z M80,84.7      c-0.4-0.4-0.3-1.1,0.2-1.4l0,0c0.4-0.3,1.1-0.3,1.4,0.2l0,0c0.3,0.4,0.3,1.1-0.2,1.4l0,0c-0.2,0.1-0.4,0.2-0.6,0.2l0,0      C80.5,85.1,80.2,84.9,80,84.7z M114.4,83.3c-0.5-0.3-0.6-0.9-0.3-1.4l0,0c0.3-0.5,0.9-0.6,1.4-0.3l0,0c0.5,0.3,0.6,0.9,0.3,1.4      l0,0c-0.2,0.3-0.5,0.5-0.8,0.5l0,0C114.8,83.5,114.6,83.4,114.4,83.3z M77.7,81.2c-0.2-0.5-0.1-1.1,0.4-1.4l0,0      c0.5-0.2,1.1-0.1,1.4,0.4l0,0c0.2,0.5,0.1,1.1-0.4,1.4l0,0c-0.1,0.1-0.3,0.1-0.5,0.1l0,0C78.3,81.7,77.9,81.5,77.7,81.2z       M116.4,79.8c-0.5-0.2-0.8-0.8-0.6-1.3l0,0c0.2-0.5,0.8-0.8,1.3-0.6l0,0c0.5,0.2,0.8,0.8,0.6,1.3l0,0c-0.2,0.4-0.5,0.6-0.9,0.6      l0,0C116.7,79.9,116.5,79.9,116.4,79.8z M76.2,77.3c-0.2-0.5,0.1-1.1,0.7-1.2l0,0c0.5-0.1,1.1,0.2,1.2,0.7l0,0      c0.2,0.5-0.1,1.1-0.7,1.2l0,0c-0.1,0-0.2,0-0.3,0l0,0C76.7,78,76.3,77.7,76.2,77.3z M117.7,76.1c-0.6-0.1-0.9-0.6-0.8-1.2l0,0      c0.1-0.5,0.6-0.9,1.2-0.8l0,0c0.6,0.1,0.9,0.6,0.8,1.2l0,0c-0.1,0.5-0.5,0.8-1,0.8l0,0C117.9,76.1,117.8,76.1,117.7,76.1z       M75.4,73.2C75.4,73.2,75.4,73.2,75.4,73.2L75.4,73.2c0-0.6,0.4-1,0.9-1.1l0,0c0.5,0,1,0.4,1.1,0.9l0,0c0,0.5-0.4,1-0.9,1.1l0,0      c0,0-0.1,0-0.1,0l0,0C75.9,74.1,75.4,73.7,75.4,73.2z M117.3,71.1L117.3,71.1L117.3,71.1L117.3,71.1c0-0.5,0.4-1,1-1l0,0      c0.5,0,1,0.5,1,1l0,0l0,0l0,0l0,0l0,0c0,0.6-0.5,1-1,1l0,0C117.7,72.1,117.3,71.7,117.3,71.1z M76.3,70.1c-0.6,0-1-0.5-0.9-1.1      l0,0c0.1-0.5,0.5-1,1.1-0.9l0,0c0.5,0,0.9,0.5,0.9,1.1l0,0C77.3,69.7,76.9,70.1,76.3,70.1L76.3,70.1      C76.4,70.1,76.3,70.1,76.3,70.1z M116.9,67.3c-0.1-0.6,0.2-1.1,0.8-1.2l0,0c0.5-0.1,1.1,0.2,1.2,0.8l0,0      c0.1,0.5-0.2,1.1-0.8,1.2l0,0c-0.1,0-0.1,0-0.2,0l0,0C117.4,68.1,117,67.8,116.9,67.3z M76.9,66.1c-0.5-0.2-0.8-0.7-0.7-1.2l0,0      c0.1-0.5,0.7-0.8,1.2-0.7l0,0c0.5,0.2,0.8,0.7,0.7,1.2l0,0c-0.1,0.4-0.5,0.7-1,0.7l0,0C77,66.2,77,66.2,76.9,66.1z M115.9,63.7      c-0.2-0.5,0-1.1,0.6-1.3l0,0c0.5-0.2,1.1,0,1.3,0.6l0,0c0.2,0.5,0,1.1-0.6,1.3l0,0c-0.1,0-0.2,0.1-0.4,0.1l0,0      C116.4,64.3,116,64.1,115.9,63.7z M78.2,62.4c-0.5-0.3-0.7-0.9-0.4-1.4l0,0c0.2-0.5,0.9-0.7,1.3-0.4l0,0      c0.5,0.2,0.7,0.9,0.4,1.4l0,0c-0.2,0.3-0.5,0.5-0.9,0.5l0,0C78.5,62.5,78.3,62.4,78.2,62.4z M114.1,60.3      c-0.3-0.5-0.2-1.1,0.3-1.4l0,0c0.5-0.3,1.1-0.2,1.4,0.3l0,0c0.3,0.5,0.2,1.1-0.3,1.4l0,0c-0.2,0.1-0.4,0.2-0.5,0.2l0,0      C114.6,60.7,114.3,60.6,114.1,60.3z M80.2,58.9c-0.4-0.3-0.5-1-0.2-1.4l0,0c0.3-0.4,1-0.5,1.4-0.2l0,0c0.4,0.3,0.5,1,0.2,1.4      l0,0c-0.2,0.2-0.5,0.4-0.8,0.4l0,0C80.6,59.1,80.4,59,80.2,58.9z M111.8,57.3c-0.4-0.4-0.4-1,0-1.4l0,0c0.4-0.4,1-0.4,1.4,0l0,0      l0,0l0,0c0.4,0.4,0.4,1,0,1.4l0,0c-0.2,0.2-0.4,0.3-0.7,0.3l0,0C112.2,57.6,112,57.5,111.8,57.3z M82.8,55.9      c-0.4-0.4-0.3-1,0.1-1.4l0,0l0,0l0,0c0.4-0.4,1-0.3,1.4,0.1l0,0c0.4,0.4,0.3,1.1-0.1,1.4l0,0c-0.2,0.2-0.4,0.2-0.6,0.2l0,0      C83.3,56.2,83,56.1,82.8,55.9z M108.9,54.8L108.9,54.8c-0.4-0.3-0.5-0.9-0.2-1.4l0,0c0.3-0.5,0.9-0.6,1.4-0.2l0,0      c0.5,0.3,0.6,1,0.2,1.4l0,0c-0.2,0.3-0.5,0.4-0.8,0.4l0,0C109.3,55,109.1,54.9,108.9,54.8z M85.9,53.4c-0.3-0.5-0.1-1.1,0.4-1.4      l0,0l0,0l0,0c0.5-0.3,1.1-0.1,1.4,0.4l0,0c0.3,0.5,0.1,1.1-0.4,1.4l0,0c-0.2,0.1-0.3,0.1-0.5,0.1l0,0      C86.4,53.9,86.1,53.7,85.9,53.4z M105.6,52.9L105.6,52.9c-0.5-0.2-0.7-0.8-0.5-1.3l0,0c0.2-0.5,0.8-0.7,1.3-0.5l0,0      c0.5,0.2,0.7,0.8,0.5,1.3l0,0c-0.2,0.4-0.5,0.6-0.9,0.6l0,0C105.9,53,105.7,53,105.6,52.9z M89.5,51.6c-0.2-0.5,0.1-1.1,0.6-1.3      l0,0l0,0l0,0c0.5-0.2,1.1,0.1,1.3,0.6l0,0c0.2,0.5-0.1,1.1-0.6,1.3l0,0c-0.1,0-0.2,0-0.3,0l0,0C90,52.2,89.6,52,89.5,51.6z       M102,51.7L102,51.7c-0.5-0.1-0.9-0.7-0.7-1.2l0,0c0.1-0.5,0.7-0.9,1.2-0.7l0,0l0,0l0,0c0.5,0.1,0.9,0.7,0.7,1.2l0,0      c-0.1,0.5-0.5,0.8-1,0.8l0,0C102.2,51.7,102.1,51.7,102,51.7z M93.3,50.4c-0.1-0.5,0.3-1,0.8-1.1l0,0c0.5-0.1,1.1,0.3,1.1,0.9      l0,0c0.1,0.5-0.3,1.1-0.9,1.1v0c-0.1,0-0.1,0-0.1,0l0,0C93.8,51.3,93.4,50.9,93.3,50.4z M98.2,51.1c-0.5,0-1-0.5-0.9-1l0,0      c0-0.5,0.5-1,1-0.9l0,0c0.5,0,1,0.5,1,1l0,0C99.3,50.7,98.8,51.1,98.2,51.1L98.2,51.1C98.3,51.1,98.3,51.1,98.2,51.1z"/></g><g><path class="st3" d="M104.3,108.1l-11,0l0-5.9c0-2.5-1.6-3.9-3.2-4.4c-1.5-0.5-3.7-0.3-5.2,1.7l-3.5,4.8l-8.9-6.5l3.5-4.8      c1.5-2,1-4.1,0-5.4c-1-1.3-2.8-2.4-5.2-1.7l-5.6,1.8l-3.4-10.5l5.6-1.8c2.4-0.8,3.2-2.8,3.2-4.4c0-1.6-0.8-3.6-3.2-4.4l-5.6-1.8      l3.4-10.3l5.6,1.8c2.4,0.8,4.2-0.4,5.2-1.7c1-1.3,1.5-3.4,0-5.4l-3.5-4.8l8.9-6.5l3.5,4.8c1.5,2,3.6,2.2,5.2,1.7      c1.5-0.5,3.2-1.9,3.2-4.4l0-5.9l11,0l0,5.9c0,2.5,1.6,3.9,3.2,4.4c1.5,0.5,3.7,0.3,5.2-1.7l3.5-4.8l8.9,6.5l-3.5,4.8      c-1.5,2-1,4.1,0,5.4c1,1.3,2.8,2.4,5.2,1.7l5.6-1.8l3.4,10.5l-5.6,1.8c-2.4,0.8-3.2,2.8-3.2,4.4c0,1.6,0.8,3.6,3.2,4.4l5.6,1.8      l-3.4,10.3l-5.6-1.8c-2.4-0.8-4.2,0.4-5.2,1.7c-1,1.3-1.5,3.4,0,5.4l3.5,4.8l-8.9,6.5l-3.5-4.8c-1.5-2-3.6-2.2-5.2-1.7      c-1.5,0.5-3.2,1.9-3.2,4.4L104.3,108.1z M95.3,106.1l7,0l0-3.9c0-2.9,1.8-5.4,4.6-6.3c2.8-0.9,5.7,0,7.4,2.4l2.3,3.2l5.7-4.1      l-2.3-3.2c-1.7-2.4-1.7-5.4,0-7.8c1.7-2.4,4.6-3.3,7.4-2.4l3.7,1.2l2.1-6.5l-3.7-1.2c-2.8-0.9-4.6-3.4-4.6-6.3      c0-2.9,1.8-5.4,4.6-6.3l3.7-1.2l-2.2-6.7l-3.7,1.2c-2.8,0.9-5.7,0-7.4-2.4c-1.7-2.4-1.7-5.4,0-7.8l2.3-3.2l-5.7-4.1l-2.3,3.2      c-1.7,2.4-4.6,3.3-7.4,2.4c-2.8-0.9-4.6-3.4-4.6-6.3l0-3.9l-7,0l0,3.9c0,2.9-1.8,5.4-4.6,6.3c-2.8,0.9-5.7,0-7.4-2.4l-2.3-3.2      l-5.7,4.1l2.3,3.2c1.7,2.4,1.7,5.4,0,7.8c-1.7,2.4-4.6,3.3-7.4,2.4L66.5,57l-2.1,6.5l3.7,1.2c2.8,0.9,4.6,3.4,4.6,6.3      c0,2.9-1.8,5.4-4.6,6.3l-3.7,1.2l2.2,6.7l3.7-1.2c2.8-0.9,5.7,0,7.4,2.4c1.7,2.4,1.7,5.4,0,7.8l-2.3,3.2l5.7,4.1l2.3-3.2      c1.7-2.4,4.6-3.3,7.4-2.4c2.8,0.9,4.6,3.4,4.6,6.3L95.3,106.1z"/></g></g><path class="st3" d="M135.5,30.6c-11.1-10.5-25.7-15.9-41-15.1C68.2,17,46.6,37.2,42.9,62.8h2c3.7-24.5,24.5-43.9,49.7-45.2    c14.8-0.8,28.8,4.4,39.5,14.5c10.7,10.2,16.6,23.9,16.6,38.6c0,14.6-5.8,28.2-16.4,38.3c-6.1,5.8-9.4,13.5-9.4,21.6v13H70.1v-13.7    c0-7.7-3.3-15-9.2-20.6c-7.9-7.5-13.2-17.2-15.5-27.6h-2c2.2,11,7.8,21.2,16.1,29.1c5.5,5.2,8.5,12,8.5,19.2v15.7h58.8v-15    c0-7.5,3.1-14.7,8.8-20.1c11-10.5,17-24.6,17-39.8C152.7,55.4,146.6,41.2,135.5,30.6z"/><g><g><g><g><path class="st6" d="M9.2,76.5c-2.8,0-5-2.2-5-5s2.2-5,5-5h45.6l10.8,5l-10.8,5L9.2,76.5z M9.2,68.5c-1.7,0-3,1.3-3,3        s1.3,3,3,3l45.2,0l6.5-3l-6.5-3H9.2z"/></g></g><g><rect class="st6" height="7.6" width="2" x="14.8" y="67.9"/></g></g><g><rect class="st6" height="2" width="38" x="15.8" y="70.5"/></g></g><g><g><g><path class="st6" d="M172.5,148.2c-9.4,0-17-7.6-17-17c0-9.4,7.6-17,17-17c9.4,0,17,7.6,17,17       C189.5,140.5,181.9,148.2,172.5,148.2z M172.5,116.2c-8.3,0-15,6.7-15,15s6.7,15,15,15c8.3,0,15-6.7,15-15       S180.8,116.2,172.5,116.2z M172.5,142.2c-6.1,0-11-4.9-11-11c0-6.1,4.9-11,11-11c6.1,0,11,4.9,11,11       C183.5,137.2,178.6,142.2,172.5,142.2z M172.5,122.2c-5,0-9,4-9,9c0,5,4,9,9,9c5,0,9-4,9-9       C181.5,126.2,177.5,122.2,172.5,122.2z"/></g><g><path class="st6" d="M172.5,136.2c-2.8,0-5-2.2-5-5c0-2.8,2.2-5,5-5c2.8,0,5,2.2,5,5C177.5,133.9,175.3,136.2,172.5,136.2z        M172.5,128.2c-1.7,0-3,1.3-3,3s1.3,3,3,3c1.7,0,3-1.3,3-3S174.1,128.2,172.5,128.2z"/></g><g><circle class="st5" cx="172.5" cy="131.2" r="4"/><path class="st5" d="M172.5,136.2c-2.8,0-5-2.2-5-5c0-2.8,2.2-5,5-5c2.8,0,5,2.2,5,5C177.5,133.9,175.3,136.2,172.5,136.2z        M172.5,128.2c-1.7,0-3,1.3-3,3s1.3,3,3,3c1.7,0,3-1.3,3-3S174.1,128.2,172.5,128.2z"/></g></g><g><g><rect class="st6" height="2" width="27" x="145.5" y="130.2"/></g><g><path class="st6" d="M142.9,136.2h-8.8l5-5l-5-5h8.8l5,5L142.9,136.2z M138.9,134.2h3.2l3-3l-3-3h-3.2l3,3L138.9,134.2z"/></g></g></g></g></g></svg>