<?xml version="1.0" ?><svg id="Layer_1" style="enable-background:new 0 0 193 193;" version="1.1" viewBox="0 0 193 193" xml:space="preserve" xmlns="http://www.w3.org/2000/svg" xmlns:xlink="http://www.w3.org/1999/xlink"><style type="text/css">
	.st0{clip-path:url(#SVGID_2_);}
	.st1{fill:#DFE0E0;}
	.st2{fill:#FFD15D;}
	.st3{fill:#48515A;}
	.st4{fill:#5FE0ED;}
	.st5{fill:#475059;}
	.st6{fill:#F58E70;}
</style><g><defs><rect height="193" id="SVGID_1_" width="193"/></defs><clipPath id="SVGID_2_"><use style="overflow:visible;" xlink:href="#SVGID_1_"/></clipPath><g class="st0"><g><polygon class="st1" points="21.3,108.5 21.3,126.5 44.5,140.5 148.5,140.5 172.8,126.5 172.8,109.2 148.5,124.5 44.5,124.5         "/></g><g><rect class="st2" height="111.2" width="12" x="128.5" y="65.3"/><path class="st2" d="M141,177h-13V64.8h13V177z M129,176h11V65.8h-11V176z"/></g><g><rect class="st2" height="111" width="12" x="52.5" y="65.5"/><path class="st2" d="M65,177H52V65h13V177z M53,176h11V66H53V176z"/></g><g><polygon class="st3" points="173.8,175.4 140.5,175.4 140.5,173.4 171.8,173.4 171.8,109.2 173.8,109.2    "/></g><g><rect class="st3" height="2" width="64" x="64.5" y="173.4"/></g><g><polygon class="st3" points="52.5,175.4 20.3,175.4 20.3,108.5 22.3,108.5 22.3,173.4 52.5,173.4    "/></g><g><polygon class="st3" points="43.9,124.7 17.5,107.6 17.5,67.5 52.3,67.5 52.3,69.5 19.5,69.5 19.5,106.5 44.4,122.7 52.2,122.7      52.2,124.7    "/></g><g><rect class="st3" height="2" width="63.8" x="64.8" y="67.5"/></g><g><polygon class="st3" points="140.2,124.6 140.2,122.6 148.8,122.6 174.6,106.5 174.6,69.5 141.2,69.5 141.2,67.5 176.6,67.5      176.6,107.6 149.4,124.6    "/></g><g><rect class="st3" height="2" width="63.3" x="65.2" y="122.6"/></g><g><polygon class="st3" points="130.8,65.7 121.7,49.7 118.5,49.7 118.5,47.7 122.9,47.7 132.5,64.8    "/></g><g><polygon class="st3" points="63.2,66 61.5,65 71.2,47.7 82.5,47.7 82.5,49.7 72.4,49.7    "/></g><g><path class="st3" d="M73.5,48.5h-2V33.8c0-2.4,0.6-4.7,1.9-6.7l7.1-11.9v-2.7h2v3c0,0.2,0,0.4-0.1,0.5l-7.3,12.1     c-1,1.7-1.6,3.7-1.6,5.7V48.5z"/></g><g><path class="st3" d="M95,66.5c-2.6,0-4.8-1.8-5.4-4.3c-1,0.8-2.2,1.3-3.5,1.3H86c-3,0-5.5-2.5-5.5-5.5l0-21.5c0-0.6,0.4-1,1-1     s1,0.4,1,1l0,21.5c0,1.9,1.6,3.5,3.5,3.5h0.1c0,0,0,0,0,0c0.9,0,1.7-0.3,2.4-1c0.6-0.6,1-1.5,1-2.4l0-15.6c0-0.3,0.1-0.5,0.3-0.7     c0.2-0.2,0.4-0.3,0.7-0.3c0.6,0,1,0.4,1,1V61c0,1.9,1.6,3.5,3.5,3.5c1.9,0,3.5-1.6,3.5-3.5V42.5c0-0.6,0.4-1,1-1c0.6,0,1,0.4,1,1     V58c0,1.9,1.6,3.5,3.5,3.5c1.9,0,3.5-1.6,3.5-3.5V42.5c0-0.6,0.4-1,1-1c0.6,0,1,0.4,1,1v14c0,1.9,1.6,3.5,3.5,3.5     s3.5-1.6,3.5-3.5v-14c0-7.8-1.5-15.5-4.4-22.8l-1.5-3.9c0-0.1-0.1-0.2-0.1-0.4v-3h2v2.8L114,19c3,7.5,4.5,15.4,4.5,23.5v14     c0,3-2.5,5.5-5.5,5.5c-1.6,0-3-0.7-4-1.7c-0.9,1.9-2.8,3.2-5,3.2c-1.4,0-2.7-0.5-3.6-1.4C99.9,64.6,97.6,66.5,95,66.5z"/></g><g><g><polygon class="st3" points="69.5,141.5 47.5,141.5 47.5,127.5 52.5,127.5 52.5,129.5 49.5,129.5 49.5,139.5 67.5,139.5       67.5,129.5 64.5,129.5 64.5,127.5 69.5,127.5     "/></g><g><path class="st3" d="M58.5,153.6l-7-2.3V64.5h14v86.7L58.5,153.6z M53.5,149.8l5,1.7l5-1.7V66.5h-10V149.8z"/></g><g><rect class="st3" height="6" width="2" x="57.5" y="134.5"/></g><g><polygon class="st3" points="65.5,177.5 51.5,177.5 51.5,150.5 53.5,150.5 53.5,175.5 63.5,175.5 63.5,150.5 65.5,150.5     "/></g><g><path class="st3" d="M58.5,147.5c-0.3,0-0.5-0.1-0.7-0.3c-0.1-0.1-0.2-0.2-0.2-0.3c0-0.1-0.1-0.2-0.1-0.4c0-0.1,0-0.3,0.1-0.4      c0-0.1,0.1-0.2,0.2-0.3c0.4-0.4,1-0.4,1.4,0c0.1,0.1,0.2,0.2,0.2,0.3c0,0.1,0.1,0.2,0.1,0.4c0,0.1,0,0.3-0.1,0.4      c-0.1,0.1-0.1,0.2-0.2,0.3c0,0-0.1,0.1-0.1,0.1c0,0-0.1,0.1-0.2,0.1c-0.1,0-0.1,0-0.2,0.1C58.6,147.5,58.6,147.5,58.5,147.5z"/></g><g><path class="st3" d="M58.5,127.5c-0.3,0-0.5-0.1-0.7-0.3c-0.2-0.2-0.3-0.5-0.3-0.7c0-0.3,0.1-0.5,0.3-0.7c0.4-0.4,1-0.4,1.4,0      c0.2,0.2,0.3,0.4,0.3,0.7c0,0.3-0.1,0.5-0.3,0.7C59,127.4,58.8,127.5,58.5,127.5z"/></g><g><rect class="st3" height="2" width="20" x="48.5" y="155.5"/></g><g><rect class="st3" height="2" width="20" x="48.5" y="97.5"/></g></g><g><g><polygon class="st3" points="145.5,141.5 123.5,141.5 123.5,127.5 128.5,127.5 128.5,129.5 125.5,129.5 125.5,139.5       143.5,139.5 143.5,129.5 140.5,129.5 140.5,127.5 145.5,127.5     "/></g><g><path class="st3" d="M134.5,153.6l-7-2.3V64.5h14v86.7L134.5,153.6z M129.5,149.8l5,1.7l5-1.7V66.5h-10V149.8z"/></g><g><rect class="st3" height="6" width="2" x="133.5" y="134.5"/></g><g><polygon class="st3" points="141.5,177.5 127.5,177.5 127.5,150.5 129.5,150.5 129.5,175.5 139.5,175.5 139.5,150.5       141.5,150.5     "/></g><g><path class="st3" d="M134.5,147.5c-0.3,0-0.5-0.1-0.7-0.3c-0.2-0.2-0.3-0.4-0.3-0.7c0-0.1,0-0.3,0.1-0.4c0-0.1,0.1-0.2,0.2-0.3      c0.4-0.4,1-0.4,1.4,0c0.1,0.1,0.2,0.2,0.2,0.3c0,0.1,0.1,0.2,0.1,0.4c0,0.3-0.1,0.5-0.3,0.7C135,147.4,134.8,147.5,134.5,147.5z      "/></g><g><path class="st3" d="M134.5,127.5c-0.3,0-0.5-0.1-0.7-0.3c-0.2-0.2-0.3-0.4-0.3-0.7c0-0.1,0-0.3,0.1-0.4c0-0.1,0.1-0.2,0.2-0.3      c0.4-0.4,1-0.4,1.4,0c0.2,0.2,0.3,0.4,0.3,0.7c0,0.1,0,0.1,0,0.2c0,0.1,0,0.1,0,0.2c0,0.1-0.1,0.1-0.1,0.2c0,0-0.1,0.1-0.1,0.1      C135,127.4,134.8,127.5,134.5,127.5z"/></g><g><rect class="st3" height="2" width="20" x="124.5" y="155.5"/></g><g><rect class="st3" height="2" width="20" x="124.5" y="97.5"/></g></g><g><path class="st3" d="M115.5,128.5c0-0.6,0.5-1,1-1l0,0c0.5,0,1,0.4,1,1l0,0c0,0.5-0.5,1-1,1l0,0C116,129.5,115.5,129,115.5,128.5     z M111.5,128.5c0-0.6,0.5-1,1-1l0,0c0.5,0,1,0.4,1,1l0,0c0,0.5-0.5,1-1,1l0,0C112,129.5,111.5,129,111.5,128.5z M107.5,128.5     c0-0.6,0.5-1,1-1l0,0c0.5,0,1,0.4,1,1l0,0c0,0.5-0.5,1-1,1l0,0C108,129.5,107.5,129,107.5,128.5z M103.5,128.5c0-0.6,0.5-1,1-1     l0,0c0.5,0,1,0.4,1,1l0,0c0,0.5-0.5,1-1,1l0,0C104,129.5,103.5,129,103.5,128.5z M99.5,128.5c0-0.6,0.5-1,1-1l0,0     c0.5,0,1,0.4,1,1l0,0c0,0.5-0.5,1-1,1l0,0C100,129.5,99.5,129,99.5,128.5z M95.5,128.5c0-0.6,0.4-1,1-1l0,0c0.5,0,1,0.4,1,1l0,0     c0,0.5-0.5,1-1,1l0,0C96,129.5,95.5,129,95.5,128.5z M91.5,128.5c0-0.6,0.4-1,1-1l0,0c0.5,0,1,0.4,1,1l0,0c0,0.5-0.5,1-1,1l0,0     C92,129.5,91.5,129,91.5,128.5z M87.5,128.5c0-0.6,0.4-1,1-1l0,0c0.5,0,1,0.4,1,1l0,0c0,0.5-0.5,1-1,1l0,0     C88,129.5,87.5,129,87.5,128.5z M83.5,128.5c0-0.6,0.4-1,1-1l0,0c0.5,0,1,0.4,1,1l0,0c0,0.5-0.5,1-1,1l0,0     C84,129.5,83.5,129,83.5,128.5z M79.5,128.5c0-0.6,0.4-1,1-1l0,0c0.5,0,1,0.4,1,1l0,0c0,0.5-0.5,1-1,1l0,0     C80,129.5,79.5,129,79.5,128.5z M75.5,128.5c0-0.6,0.4-1,1-1l0,0c0.5,0,1,0.4,1,1l0,0c0,0.5-0.5,1-1,1l0,0     C76,129.5,75.5,129,75.5,128.5z"/></g><g><path class="st3" d="M123.5,170.5c0-0.6,0.5-1,1-1l0,0c0.5,0,1,0.4,1,1l0,0c0,0.5-0.5,1-1,1l0,0C124,171.5,123.5,171,123.5,170.5     z M119.5,170.5c0-0.6,0.5-1,1-1l0,0c0.5,0,1,0.4,1,1l0,0c0,0.5-0.5,1-1,1l0,0C120,171.5,119.5,171,119.5,170.5z M115.5,170.5     c0-0.6,0.5-1,1-1l0,0c0.5,0,1,0.4,1,1l0,0c0,0.5-0.5,1-1,1l0,0C116,171.5,115.5,171,115.5,170.5z M111.5,170.5c0-0.6,0.5-1,1-1     l0,0c0.5,0,1,0.4,1,1l0,0c0,0.5-0.5,1-1,1l0,0C112,171.5,111.5,171,111.5,170.5z M107.5,170.5c0-0.6,0.5-1,1-1l0,0     c0.5,0,1,0.4,1,1l0,0c0,0.5-0.5,1-1,1l0,0C108,171.5,107.5,171,107.5,170.5z M103.5,170.5c0-0.6,0.5-1,1-1l0,0c0.5,0,1,0.4,1,1     l0,0c0,0.5-0.5,1-1,1l0,0C104,171.5,103.5,171,103.5,170.5z M99.5,170.5c0-0.6,0.5-1,1-1l0,0c0.5,0,1,0.4,1,1l0,0     c0,0.5-0.5,1-1,1l0,0C100,171.5,99.5,171,99.5,170.5z M95.5,170.5c0-0.6,0.4-1,1-1l0,0c0.5,0,1,0.4,1,1l0,0c0,0.5-0.5,1-1,1l0,0     C96,171.5,95.5,171,95.5,170.5z M91.5,170.5c0-0.6,0.4-1,1-1l0,0c0.5,0,1,0.4,1,1l0,0c0,0.5-0.5,1-1,1l0,0     C92,171.5,91.5,171,91.5,170.5z M87.5,170.5c0-0.6,0.4-1,1-1l0,0c0.5,0,1,0.4,1,1l0,0c0,0.5-0.5,1-1,1l0,0     C88,171.5,87.5,171,87.5,170.5z M83.5,170.5c0-0.6,0.4-1,1-1l0,0c0.5,0,1,0.4,1,1l0,0c0,0.5-0.5,1-1,1l0,0     C84,171.5,83.5,171,83.5,170.5z M79.5,170.5c0-0.6,0.4-1,1-1l0,0c0.5,0,1,0.4,1,1l0,0c0,0.5-0.5,1-1,1l0,0     C80,171.5,79.5,171,79.5,170.5z M75.5,170.5c0-0.6,0.4-1,1-1l0,0c0.5,0,1,0.4,1,1l0,0c0,0.5-0.5,1-1,1l0,0     C76,171.5,75.5,171,75.5,170.5z M71.5,170.5c0-0.6,0.4-1,1-1l0,0c0.5,0,1,0.4,1,1l0,0c0,0.5-0.5,1-1,1l0,0     C72,171.5,71.5,171,71.5,170.5z M67.5,170.5c0-0.6,0.4-1,1-1l0,0c0.5,0,1,0.4,1,1l0,0c0,0.5-0.5,1-1,1l0,0     C68,171.5,67.5,171,67.5,170.5z"/></g><g><path class="st3" d="M121.5,68.5h-2v-12c0-0.6-0.4-1-1-1v-2c1.7,0,3,1.3,3,3V68.5z"/></g><g><path class="st3" d="M75.5,68.5h-2v-12c0-1.7,1.3-3,3-3h4v2h-4c-0.6,0-1,0.4-1,1V68.5z"/></g><g><path class="st3" d="M58.5,117.5c-0.3,0-0.5-0.1-0.7-0.3c-0.1-0.1-0.2-0.2-0.2-0.3c0-0.1-0.1-0.2-0.1-0.4c0-0.1,0-0.3,0.1-0.4     c0-0.1,0.1-0.2,0.2-0.3c0.4-0.4,1-0.4,1.4,0c0.1,0.1,0.2,0.2,0.2,0.3c0,0.1,0.1,0.2,0.1,0.4c0,0.1,0,0.3-0.1,0.4     c-0.1,0.1-0.1,0.2-0.2,0.3c0,0-0.1,0.1-0.1,0.1c0,0-0.1,0.1-0.2,0.1c-0.1,0-0.1,0-0.2,0.1C58.6,117.5,58.6,117.5,58.5,117.5z"/></g><g><path class="st3" d="M134.5,117.5c-0.3,0-0.5-0.1-0.7-0.3c-0.1-0.1-0.2-0.2-0.2-0.3c0-0.1-0.1-0.2-0.1-0.4c0-0.3,0.1-0.5,0.3-0.7     c0.4-0.4,1-0.4,1.4,0c0,0,0.1,0.1,0.1,0.2c0,0.1,0.1,0.1,0.1,0.2c0,0.1,0,0.1,0,0.2c0,0.1,0,0.1,0,0.2c0,0.3-0.1,0.5-0.3,0.7     C135,117.4,134.8,117.5,134.5,117.5z"/></g><g><polyline class="st4" points="74.5,0.5 74.5,8.5 118.5,8.5 118.5,0.5    "/></g><g><g><path class="st3" d="M108.5,4.5h-4c-0.6,0-1-0.4-1-1c0-0.6,0.4-1,1-1h4c0.6,0,1,0.4,1,1C109.5,4.1,109.1,4.5,108.5,4.5z"/></g><g><path class="st3" d="M110.5,6.5c-1.7,0-3-1.3-3-3s1.3-3,3-3c1.7,0,3,1.3,3,3S112.2,6.5,110.5,6.5z M110.5,2.5c-0.6,0-1,0.4-1,1      s0.4,1,1,1c0.6,0,1-0.4,1-1S111.1,2.5,110.5,2.5z"/></g></g><g><g><g><g><path class="st5" d="M187.5,192.5h-83.6l-10.8-5l10.8-5h83.6c2.8,0,5,2.2,5,5C192.5,190.3,190.3,192.5,187.5,192.5z         M104.3,190.5h83.2c1.7,0,3-1.3,3-3c0-1.7-1.3-3-3-3h-83.2l-6.5,3L104.3,190.5z"/></g></g><g><rect class="st5" height="7.6" width="2" x="179.9" y="183.9"/></g></g><g><rect class="st5" height="2" width="76" x="104.9" y="186.5"/></g></g><g><g><g><rect class="st3" height="4" width="2" x="46.3" y="24.5"/></g><g><rect class="st3" height="4" width="2" x="46.3" y="34.5"/></g></g><g><g><rect class="st3" height="2" width="4" x="50.3" y="30.5"/></g><g><rect class="st3" height="2" width="4" x="40.3" y="30.5"/></g></g></g><g><g><g><rect class="st3" height="4" width="2" x="156.3" y="80.5"/></g><g><rect class="st3" height="4" width="2" x="156.3" y="90.5"/></g></g><g><g><rect class="st3" height="2" width="4" x="160.3" y="86.5"/></g><g><rect class="st3" height="2" width="4" x="150.3" y="86.5"/></g></g></g><g><g><g><rect class="st3" height="4" width="2" x="6.5" y="174.5"/></g><g><rect class="st3" height="4" width="2" x="6.5" y="184.5"/></g></g><g><g><rect class="st3" height="2" width="4" x="10.5" y="180.5"/></g><g><rect class="st3" height="2" width="4" x="0.5" y="180.5"/></g></g></g><g><circle class="st6" cx="15.4" cy="22.5" r="4"/></g><g><g><path class="st6" d="M24.4,93.5c-10.5,0-19-8.5-19-19c0-10.5,8.5-19,19-19c10.5,0,19,8.5,19,19C43.4,84.9,34.8,93.5,24.4,93.5z       M24.4,57.5c-9.4,0-17,7.6-17,17s7.6,17,17,17c9.4,0,17-7.6,17-17S33.7,57.5,24.4,57.5z"/></g><g><path class="st3" d="M24.4,84.5c-0.6,0-1-0.4-1-1v-10c0-0.6,0.4-1,1-1h7c0.6,0,1,0.4,1,1c0,0.6-0.4,1-1,1h-6v9      C25.4,84,24.9,84.5,24.4,84.5z"/></g><g><g><path class="st3" d="M24.4,61.5c-0.1,0-0.3,0-0.4-0.1c-0.1,0-0.2-0.1-0.3-0.2c-0.2-0.2-0.3-0.4-0.3-0.7c0-0.3,0.1-0.5,0.3-0.7       c0.1-0.1,0.2-0.2,0.3-0.2c0.2-0.1,0.5-0.1,0.8,0c0.1,0,0.2,0.1,0.3,0.2c0.1,0.1,0.2,0.2,0.2,0.3c0,0.1,0.1,0.2,0.1,0.4       c0,0.3-0.1,0.5-0.3,0.7c-0.1,0.1-0.2,0.2-0.3,0.2C24.6,61.4,24.5,61.5,24.4,61.5z"/></g><g><path class="st3" d="M24.4,89.5c-0.1,0-0.3,0-0.4-0.1c-0.1,0-0.2-0.1-0.3-0.2c-0.2-0.2-0.3-0.4-0.3-0.7c0-0.1,0-0.1,0-0.2       c0-0.1,0-0.1,0.1-0.2c0-0.1,0.1-0.1,0.1-0.2c0-0.1,0.1-0.1,0.1-0.2c0.1-0.1,0.2-0.2,0.3-0.2c0.4-0.2,0.8-0.1,1.1,0.2       c0.1,0.1,0.1,0.1,0.1,0.2c0,0,0.1,0.1,0.1,0.2c0,0.1,0,0.1,0,0.2c0,0.1,0,0.1,0,0.2c0,0.1,0,0.3-0.1,0.4       c-0.1,0.1-0.1,0.2-0.2,0.3c-0.1,0.1-0.2,0.2-0.3,0.2C24.6,89.4,24.5,89.5,24.4,89.5z"/></g></g><g><g><path class="st3" d="M17.4,63.3c-0.1,0-0.3,0-0.4-0.1c-0.1-0.1-0.2-0.1-0.3-0.2c-0.1-0.1-0.2-0.2-0.2-0.3       c0-0.1-0.1-0.2-0.1-0.4c0-0.1,0-0.3,0.1-0.4c0.1-0.1,0.1-0.2,0.2-0.3c0.4-0.4,1.1-0.4,1.4,0c0.1,0.1,0.2,0.2,0.2,0.3       c0,0.1,0.1,0.3,0.1,0.4c0,0.1,0,0.3-0.1,0.4c-0.1,0.1-0.1,0.2-0.2,0.3c-0.1,0.1-0.2,0.2-0.3,0.2C17.6,63.3,17.5,63.3,17.4,63.3       z"/></g><g><path class="st3" d="M31.4,87.6c-0.1,0-0.3,0-0.4-0.1c-0.1-0.1-0.2-0.1-0.3-0.2c-0.2-0.2-0.3-0.4-0.3-0.7       c0-0.3,0.1-0.5,0.3-0.7c0.1-0.1,0.2-0.2,0.3-0.2c0.2-0.1,0.5-0.1,0.8,0c0.1,0,0.2,0.1,0.3,0.2c0.2,0.2,0.3,0.4,0.3,0.7       c0,0.3-0.1,0.5-0.3,0.7c-0.1,0.1-0.2,0.2-0.3,0.2C31.6,87.6,31.5,87.6,31.4,87.6z"/></g></g><g><g><path class="st3" d="M12.3,68.5c-0.1,0-0.3,0-0.4-0.1c-0.1,0-0.2-0.1-0.3-0.2c-0.1,0-0.1-0.1-0.1-0.1c0-0.1-0.1-0.1-0.1-0.2       c0-0.1,0-0.1,0-0.2c0-0.1,0-0.1,0-0.2c0-0.3,0.1-0.5,0.3-0.7c0.1-0.1,0.2-0.2,0.3-0.2c0.2-0.1,0.5-0.1,0.8,0       c0.1,0,0.2,0.1,0.3,0.2c0.2,0.2,0.3,0.5,0.3,0.7c0,0.1,0,0.1,0,0.2c0,0.1,0,0.1-0.1,0.2c0,0.1-0.1,0.1-0.1,0.2       c0,0-0.1,0.1-0.1,0.1c-0.1,0.1-0.2,0.2-0.3,0.2C12.5,68.4,12.4,68.5,12.3,68.5z"/></g><g><path class="st3" d="M36.5,82.5c-0.3,0-0.5-0.1-0.7-0.3c-0.2-0.2-0.3-0.4-0.3-0.7c0-0.3,0.1-0.5,0.3-0.7c0,0,0.1-0.1,0.1-0.1       c0.1,0,0.1-0.1,0.2-0.1c0.1,0,0.1,0,0.2-0.1c0.3-0.1,0.7,0,0.9,0.3c0.2,0.2,0.3,0.5,0.3,0.7c0,0.3-0.1,0.5-0.3,0.7       C37,82.4,36.8,82.5,36.5,82.5z"/></g></g><g><g><path class="st3" d="M10.4,75.5c-0.1,0-0.1,0-0.2,0c-0.1,0-0.1,0-0.2-0.1c-0.1,0-0.1,0-0.2-0.1c-0.1,0-0.1-0.1-0.1-0.1       c-0.1-0.1-0.2-0.2-0.2-0.3c0-0.1-0.1-0.2-0.1-0.4c0-0.3,0.1-0.5,0.3-0.7c0,0,0.1-0.1,0.1-0.1c0,0,0.1-0.1,0.2-0.1       c0.1,0,0.1,0,0.2-0.1c0.2,0,0.4,0,0.6,0.1c0.1,0,0.2,0.1,0.3,0.2c0.2,0.2,0.3,0.5,0.3,0.7c0,0.3-0.1,0.5-0.3,0.7       c-0.1,0.1-0.2,0.2-0.3,0.2C10.6,75.4,10.5,75.5,10.4,75.5z"/></g><g><path class="st3" d="M38.4,75.5c-0.1,0-0.3,0-0.4-0.1c-0.1,0-0.2-0.1-0.3-0.2c-0.2-0.2-0.3-0.4-0.3-0.7c0-0.3,0.1-0.5,0.3-0.7       c0.1-0.1,0.2-0.2,0.3-0.2c0.4-0.1,0.8-0.1,1.1,0.2c0.2,0.2,0.3,0.5,0.3,0.7c0,0.3-0.1,0.5-0.3,0.7       C38.9,75.4,38.6,75.5,38.4,75.5z"/></g></g><g><g><path class="st3" d="M12.3,82.5c-0.1,0-0.3,0-0.4-0.1c-0.1-0.1-0.2-0.1-0.3-0.2c-0.1-0.1-0.2-0.2-0.2-0.3       c0-0.1-0.1-0.2-0.1-0.4c0-0.1,0-0.1,0-0.2c0-0.1,0-0.1,0-0.2c0-0.1,0.1-0.1,0.1-0.2c0-0.1,0.1-0.1,0.1-0.2       c0.1-0.1,0.2-0.2,0.3-0.2c0.4-0.1,0.8-0.1,1.1,0.2c0,0.1,0.1,0.1,0.1,0.2c0,0,0.1,0.1,0.1,0.2c0,0.1,0,0.1,0.1,0.2       c0,0.1,0,0.1,0,0.2c0,0.1,0,0.3-0.1,0.4c-0.1,0.1-0.1,0.2-0.2,0.3C12.8,82.4,12.5,82.5,12.3,82.5z"/></g><g><path class="st3" d="M36.5,68.5c-0.3,0-0.5-0.1-0.7-0.3c-0.2-0.2-0.3-0.4-0.3-0.7c0-0.3,0.1-0.5,0.3-0.7c0.4-0.4,1-0.4,1.4,0       c0.2,0.2,0.3,0.5,0.3,0.7c0,0.3-0.1,0.5-0.3,0.7C37,68.4,36.8,68.5,36.5,68.5z"/></g></g><g><g><path class="st3" d="M17.4,87.6c-0.1,0-0.3,0-0.4-0.1c-0.1-0.1-0.2-0.1-0.3-0.2c-0.2-0.2-0.3-0.4-0.3-0.7c0-0.1,0-0.1,0-0.2       c0-0.1,0-0.1,0.1-0.2c0-0.1,0.1-0.1,0.1-0.2c0-0.1,0.1-0.1,0.1-0.2c0.4-0.4,1.1-0.4,1.4,0c0,0,0.1,0.1,0.1,0.2       c0,0,0.1,0.1,0.1,0.2c0,0.1,0,0.1,0,0.2c0,0.1,0,0.1,0,0.2c0,0.3-0.1,0.5-0.3,0.7c-0.1,0.1-0.2,0.2-0.3,0.2       C17.6,87.6,17.5,87.6,17.4,87.6z"/></g><g><path class="st3" d="M31.4,63.3c-0.1,0-0.3,0-0.4-0.1c-0.1-0.1-0.2-0.1-0.3-0.2c-0.2-0.2-0.3-0.4-0.3-0.7c0-0.1,0-0.3,0.1-0.4       c0.1-0.1,0.1-0.2,0.2-0.3c0.1-0.1,0.2-0.2,0.3-0.2c0.2-0.1,0.5-0.1,0.8,0c0.1,0,0.2,0.1,0.3,0.2c0.1,0.1,0.2,0.2,0.2,0.3       c0,0.1,0.1,0.3,0.1,0.4c0,0.3-0.1,0.5-0.3,0.7c-0.1,0.1-0.2,0.2-0.3,0.2C31.6,63.3,31.5,63.3,31.4,63.3z"/></g></g></g><g><g><path class="st3" d="M165.5,47.5h-6v-4.4c-1.4-0.3-2.6-0.8-3.8-1.6l-3.1,3.1l-4.2-4.2l3.1-3.1c-0.7-1.2-1.3-2.5-1.6-3.8h-4.4v-6      h4.4c0.3-1.4,0.8-2.6,1.6-3.8l-3.1-3.1l4.2-4.2l3.1,3.1c1.2-0.7,2.5-1.3,3.8-1.6v-4.4h6v4.4c1.4,0.3,2.6,0.8,3.8,1.6l3.1-3.1      l4.2,4.2l-3.1,3.1c0.7,1.2,1.3,2.5,1.6,3.8h4.4v6h-4.4c-0.3,1.4-0.8,2.6-1.6,3.8l3.1,3.1l-4.2,4.2l-3.1-3.1      c-1.2,0.7-2.5,1.3-3.8,1.6V47.5z M161.5,45.5h2v-4l0.8-0.1c1.6-0.3,3.2-0.9,4.5-1.9l0.7-0.5l2.8,2.8l1.4-1.4l-2.8-2.8l0.5-0.7      c1-1.4,1.6-2.9,1.9-4.5l0.1-0.8h4v-2h-4l-0.1-0.8c-0.3-1.7-0.9-3.2-1.9-4.5l-0.5-0.7l2.8-2.8l-1.4-1.4l-2.8,2.8l-0.7-0.5      c-1.4-1-2.9-1.6-4.5-1.9l-0.8-0.1v-4h-2v4l-0.8,0.1c-1.6,0.3-3.2,0.9-4.5,1.9l-0.7,0.5l-2.8-2.8l-1.4,1.4l2.8,2.8l-0.5,0.7      c-1,1.4-1.6,2.9-1.9,4.5l-0.1,0.8h-4v2h4l0.1,0.8c0.3,1.6,0.9,3.2,1.9,4.5l0.5,0.7l-2.8,2.8l1.4,1.4l2.8-2.8l0.7,0.5      c1.4,1,2.9,1.6,4.5,1.9l0.8,0.1V45.5z"/></g><g><path class="st3" d="M162.5,35.5c-2.8,0-5-2.2-5-5c0-2.8,2.2-5,5-5c2.8,0,5,2.2,5,5C167.5,33.3,165.3,35.5,162.5,35.5z       M162.5,27.5c-1.7,0-3,1.3-3,3s1.3,3,3,3c1.7,0,3-1.3,3-3S164.2,27.5,162.5,27.5z"/></g></g><g><polygon class="st3" points="115.5,13.5 77.5,13.5 77.5,8.5 79.5,8.5 79.5,11.5 113.5,11.5 113.5,8.5 115.5,8.5    "/></g></g></g></svg>