<?xml version="1.0" ?><svg id="Layer_1" style="enable-background:new 0 0 193.1 193;" version="1.1" viewBox="0 0 193.1 193" xml:space="preserve" xmlns="http://www.w3.org/2000/svg" xmlns:xlink="http://www.w3.org/1999/xlink"><style type="text/css">
	.st0{clip-path:url(#SVGID_2_);}
	.st1{fill:#5FE0ED;}
	.st2{fill:#DFE0E0;}
	.st3{fill:#48515A;}
	.st4{fill:#F58E70;}
	.st5{fill:none;}
	.st6{fill:#475059;}
	.st7{fill:#FFD15D;}
</style><g><defs><rect height="193" id="SVGID_1_" width="193" x="0"/></defs><clipPath id="SVGID_2_"><use style="overflow:visible;" xlink:href="#SVGID_1_"/></clipPath><g class="st0"><path class="st1" d="M162.2,58.7c-15.1,0-27.3-12.2-27.3-27.3c0-7.8,3.3-14.9,8.5-19.8H12v98h34v-10h20l0-24.2    c0-4.5,3.6-5.9,5.6-6.6l12.5-4.3l2.6-4.8v-0.4c0,0-0.7-1.1-0.9-1.6l-2-4.3l-2.9-1.7l-1.5-5.3V46c0-1.4,0.7-2.7,1.7-3.5    c0-0.6-0.1-1.1-0.1-1.6v-0.2c0-4.2,1.7-8.4,4.8-11.4c2.9-2.9,6.8-4.5,11-4.6c3.5,0,6.8,1.2,9.6,3.4c1.8,1.4,3.3,3.3,4.3,5.4    c0.1,0.2,0.2,0.4,0.3,0.5c0.9,1.9,1.4,4.1,1.4,6.3l0,0.6c0,0.5,0,1-0.1,1.6c0.2,0.1,0.3,0.3,0.5,0.4c0.8,0.9,1.3,2,1.2,3.2    l-0.1,0.5l-1,5l-3.4,1.7l-2.1,4.3c-0.2,0.4-0.7,1.3-0.7,1.3l0,0.6l3,4.8l12.5,4.2c2,0.7,5.7,2.1,5.7,6.7l0,24.2h17.1v10h37V50.3    C177,55.5,170,58.7,162.2,58.7z"/><g><g><path class="st2" d="M53,112.5l2,12h31.5c0.3-0.3,0.6-0.6,1-0.8c0.7-1.1,1.9-1.8,3.5-1.9c0.7-0.5,1.6-0.8,2.7-0.8      c0.1,0,0.2,0,0.3,0c0.6-0.2,1.2-0.4,2-0.4c0.6,0,1.2,0.1,1.7,0.3c1.4,0,2.4,0.5,3.2,1.2c1,0.3,1.8,0.8,2.4,1.6      c0.4,0.2,0.8,0.5,1.1,0.8c0,0,0,0,0,0H136l2-12H53z"/></g><g><polygon class="st3" points="186,113.5 145.9,113.5 145.9,111.5 184,111.5 184,58.5 186,58.5     "/></g><g><polygon class="st3" points="45,113.5 8,113.5 8,7.5 135,7.5 135,9.5 10,9.5 10,111.5 45,111.5     "/></g><g><path class="st3" d="M142.9,113.5H48v-12h95V113.5z M50,111.5h91v-8H50V111.5z"/></g><g><polygon class="st3" points="61,164.7 51.8,111.5 139.1,111.5 129.9,164.7 128,164.3 136.7,113.5 54.1,113.5 62.9,164.3     "/></g><g><g><g><path class="st4" d="M99.9,99.5c0,0-1.1-22.6-1.7-24.9v0l0,0c0.5,0,0.9-0.4,0.9-0.9v-2.1L96.9,69l-2.1,2.6v2.1        c0,0.5,0.4,0.9,0.9,0.9l0,0v0c-0.6,2.3-1.7,24.9-1.7,24.9H99.9z"/></g></g><g><g><path class="st5" d="M103.3,62.5L103.3,62.5C103.3,62.6,103.3,62.6,103.3,62.5C103.3,62.6,103.3,62.6,103.3,62.5        C103.3,62.5,103.3,62.5,103.3,62.5C103.3,62.5,103.3,62.5,103.3,62.5z"/></g></g><g><path class="st2" d="M90.3,62.5v1.9l6.5,3.7l6.4-3.5l0.1-3.4v-2.9c0.2-0.2,0.5-0.5,0.7-0.8c-0.1,0.1-0.2,0.1-0.2,0.2       c-0.9,1-2.3,2-3.2,2.8c-0.7,0.6-1.7,1-2.6,1h-1.1h-1.1h-0.6c-1,0-1.9-0.4-2.6-1c-0.9-0.8-2.2-1.7-3.1-2.7c0,0-0.1-0.1-0.1-0.1       c0.3,0.3,0.6,0.6,0.9,0.9c0,0,0,0,0,0v3.1V62.5L90.3,62.5L90.3,62.5z"/></g><g><g><path class="st3" d="M90.3,65.4c-0.6,0-1-0.4-1-1v-5.8c0-0.6,0.4-1,1-1c0.6,0,1,0.4,1,1v5.8C91.3,64.9,90.8,65.4,90.3,65.4z"/></g><g><path class="st3" d="M103.2,65.3c-0.6,0-1-0.4-1-1v-6.5l0.3-0.3c0.2-0.2,1-1,1.2-1.4l2.8-5.7l2.9-1.4l0.6-3        c0-0.1-0.1-0.2-0.1-0.2c0,0-0.1-0.1-0.3-0.1h-1.8l0.2-1.2c0.2-1.3,0.3-2.5,0.3-3.5l0-0.6c0-1.6-0.3-3.2-1-4.7        c-0.1-0.1-0.1-0.3-0.2-0.4c-0.8-1.5-1.9-2.9-3.2-4c-2-1.6-4.5-2.5-7.1-2.5c-3.1,0-5.9,1.2-8.2,3.4c-2.3,2.3-3.6,5.4-3.6,8.5        v0.2c0,1,0.1,2.2,0.3,3.5l0.2,1.1h-1.7c-0.2,0-0.4,0.1-0.4,0.3l0.9,3l2.5,1.5l2.6,5.6c0.3,0.8,1.9,2.1,2.9,2.9        c0.3,0.3,0.6,0.5,0.9,0.7c0.6,0.5,1.3,0.7,2,0.7H98c0.6,0,1,0.4,1,1c0,0.6-0.4,1-1,1h-2.8c-1.2,0-2.4-0.4-3.3-1.2        c-0.3-0.2-0.6-0.5-0.9-0.7c-1.4-1.1-3-2.4-3.5-3.7l-2.3-4.9l-2.7-1.6L81.4,46c0-1.1,0.8-2.1,1.8-2.4c-0.1-1-0.2-1.9-0.2-2.8        v-0.2c0-3.7,1.5-7.3,4.2-10c2.6-2.6,6-4,9.6-4c3.1,0,6,1,8.4,2.9c1.6,1.3,2.9,2.9,3.8,4.7c0.1,0.2,0.2,0.3,0.2,0.5        c0.8,1.7,1.2,3.6,1.2,5.5l0,0.6c0,0.8-0.1,1.7-0.2,2.7c0.4,0.1,0.8,0.3,1.2,0.7c0.5,0.5,0.7,1.1,0.7,1.7l0,0.2l-0.8,4.1        l-3.2,1.6l-2.4,5c-0.2,0.6-0.7,1.2-1.3,1.8v5.7C104.2,64.8,103.8,65.3,103.2,65.3z"/></g></g><g><path class="st3" d="M70,99.5l-2,0l0-24.2c0-3.1,2.4-4,4.3-4.8L85.5,66l2.4-4.5h2.2v2h-1l-2.2,4.1l-13.9,4.7       c-2.3,0.9-3,1.4-3,2.9L70,99.5z"/></g><g><path class="st3" d="M96.9,69.3l-7.1-4c-0.5-0.3-0.7-0.9-0.4-1.4c0.3-0.5,0.9-0.7,1.4-0.4l6.1,3.4l5.9-3.3       c0.5-0.3,1.1-0.1,1.4,0.4c0.3,0.5,0.1,1.1-0.4,1.4L96.9,69.3z"/></g><g><path class="st3" d="M125.8,99.5l-2,0l0-24.2c0-1.6-0.7-2.1-3-2.9l-13.9-4.7l-2.5-4.2h-1.1v-2h2.2l2.7,4.5l13.2,4.5       c2,0.7,4.4,1.6,4.4,4.8L125.8,99.5z"/></g><g><path class="st3" d="M93,74.3c-0.2,0-0.5-0.1-0.7-0.3c-0.4-0.4-0.4-1-0.1-1.4l4.6-5.1l4.6,5.1c0.4,0.4,0.3,1-0.1,1.4       c-0.4,0.4-1,0.3-1.4-0.1l-3.1-3.5L93.8,74C93.6,74.2,93.3,74.3,93,74.3z"/></g><g><path class="st2" d="M96.9,69"/></g></g><g><polygon class="st3" points="58,102.5 56,102.5 56,65.9 72.5,57.6 73.4,59.4 58,67.1     "/></g><g><path class="st3" d="M68.6,62.7c-0.7,0-1.4-0.4-1.8-1.1c-0.5-1-0.1-2.2,0.9-2.7l4.3-2.2c1-0.5,2.2-0.1,2.7,0.9      c0.5,1,0.1,2.2-0.9,2.7l-4.3,2.2C69.2,62.6,68.9,62.7,68.6,62.7z"/></g><g><polygon class="st3" points="136,102.5 134,102.5 134,67.1 118.5,59.4 119.4,57.6 136,65.9     "/></g><g><path class="st3" d="M124.3,62.7c-0.3,0-0.6-0.1-0.9-0.2l-4.3-2.2c-1-0.5-1.4-1.7-0.9-2.7c0.5-1,1.7-1.4,2.7-0.9l4.3,2.2      c1,0.5,1.4,1.7,0.9,2.7C125.8,62.3,125.1,62.7,124.3,62.7z"/></g><g><g><path class="st4" d="M184,174.8h-48c-3.3,0-6,2.7-6,6v11.8h60v-11.8C190,177.4,187.4,174.8,184,174.8z"/></g><g><g><path class="st5" d="M166.4,155.2L166.4,155.2C166.4,155.3,166.4,155.3,166.4,155.2C166.4,155.3,166.4,155.3,166.4,155.2        C166.4,155.3,166.4,155.2,166.4,155.2C166.4,155.2,166.4,155.2,166.4,155.2z"/></g></g><g><g><path class="st3" d="M153.4,155.1c-0.6,0-1-0.4-1-1v-2.4c-0.2-0.2-0.4-0.4-0.5-0.5c-0.6-0.6-1-1.2-1.2-1.7l-2.3-4.9l-2.7-1.6        l-1.2-4.3c0-1.1,0.8-2.1,1.8-2.4c-0.1-1-0.2-1.9-0.2-2.8v-0.2c0-3.7,1.5-7.3,4.2-10c2.6-2.6,6-4,9.6-4c3.1,0,6,1,8.4,2.9        c1.6,1.2,2.9,2.9,3.8,4.7c0.1,0.2,0.2,0.3,0.2,0.5c0.8,1.7,1.2,3.6,1.2,5.5l0,0.6c0,0.8-0.1,1.7-0.2,2.7        c0.4,0.1,0.8,0.3,1.2,0.7c0.5,0.5,0.7,1.1,0.7,1.7l0,0.2l-0.8,4.1l-3.2,1.6l-2.4,5c-0.2,0.6-0.7,1.2-1.3,1.8v2.7        c0,0.6-0.4,1-1,1c-0.6,0-1-0.4-1-1v-3.5l0.3-0.3c0.2-0.2,1-1,1.2-1.4l2.8-5.7l2.9-1.4l0.6-3c0-0.1-0.1-0.2-0.1-0.2        c0,0-0.1-0.1-0.3-0.1h-1.8l0.2-1.2c0.2-1.3,0.3-2.5,0.3-3.5l0-0.6c0-1.6-0.3-3.2-1-4.7c-0.1-0.1-0.1-0.3-0.2-0.4        c-0.8-1.5-1.9-2.9-3.2-4c-2-1.6-4.5-2.5-7.1-2.5c-3,0-5.9,1.2-8.2,3.4c-2.3,2.3-3.6,5.4-3.6,8.5v0.2c0,1,0.1,2.2,0.3,3.5        l0.2,1.1h-1.7c-0.2,0-0.4,0.1-0.4,0.3l0.9,3l2.5,1.5l2.6,5.6c0.1,0.2,0.3,0.5,0.8,1.1c0.2,0.2,0.8,0.8,0.8,0.8l0.3,0.3v3.2        C154.4,154.6,153.9,155.1,153.4,155.1z"/></g></g><g><path class="st3" d="M133,169.2l-2,0l0-1.2c0-3.1,2.4-4,4.3-4.8l13.2-4.5l2.4-4.5h17.6l2.7,4.5l13.2,4.5c2,0.7,4.4,1.6,4.4,4.8       l0,1.2l-2,0l0-1.1c0-1.5-0.7-2.1-3-2.9l-13.9-4.7l-2.5-4.2h-15.3l-2.2,4.1l-13.9,4.7c-2.3,0.9-3,1.4-3,2.9L133,169.2z"/></g><g><path class="st2" d="M160,161.7"/></g><g><rect class="st3" height="2" width="12" x="154" y="159.5"/></g><g><path class="st3" d="M191.1,192.3h-2v-17.8c0-2.8-2.2-5-5-5h-48c-2.8,0-5,2.2-5,5v17.8h-2v-17.8c0-3.9,3.1-7,7-7h48       c3.9,0,7,3.1,7,7V192.3z"/></g></g><g><g><path class="st4" d="M119.5,174.8h-48c-3.3,0-6,2.7-6,6v11.8h60v-11.8C125.5,177.4,122.8,174.8,119.5,174.8z"/></g><g><g><path class="st5" d="M101.8,155.2L101.8,155.2C101.9,155.3,101.9,155.3,101.8,155.2C101.9,155.3,101.9,155.3,101.8,155.2        C101.9,155.3,101.9,155.2,101.8,155.2C101.9,155.2,101.9,155.2,101.8,155.2z"/></g></g><g><g><path class="st3" d="M88.8,155.1c-0.6,0-1-0.4-1-1v-2.4c-0.2-0.2-0.4-0.4-0.5-0.5c-0.6-0.6-1-1.2-1.2-1.7l-2.3-4.9l-2.7-1.6        l-1.2-4.3c0-1.1,0.8-2.1,1.8-2.4c-0.1-1-0.2-1.9-0.2-2.8v-0.2c0-3.7,1.5-7.3,4.2-10c2.6-2.6,5.9-4,9.5-4c0,0,0.1,0,0.1,0        c3.1,0,6,1,8.4,2.9c1.6,1.2,2.9,2.9,3.8,4.7c0.1,0.2,0.2,0.3,0.2,0.5c0.8,1.7,1.2,3.6,1.2,5.5l0,0.6c0,0.8-0.1,1.7-0.2,2.7        c0.4,0.1,0.8,0.3,1.2,0.7c0.5,0.5,0.7,1.1,0.7,1.7l0,0.2l-0.8,4.1l-3.2,1.6l-2.4,5c-0.2,0.6-0.7,1.2-1.3,1.8v2.7        c0,0.6-0.4,1-1,1c-0.6,0-1-0.4-1-1v-3.5l0.3-0.3c0.2-0.2,1-1,1.2-1.4l2.8-5.7l2.9-1.4l0.6-3c0-0.1-0.1-0.2-0.1-0.2        c0,0-0.1-0.1-0.3-0.1h-1.8l0.2-1.2c0.2-1.3,0.3-2.5,0.3-3.5l0-0.5l0-0.1c0-1.6-0.3-3.2-1-4.6c-0.1-0.1-0.1-0.3-0.2-0.4        c-0.8-1.5-1.9-2.9-3.2-4c-2-1.6-4.5-2.5-7.1-2.5c-3.1,0-5.9,1.2-8.2,3.4c-2.3,2.3-3.6,5.4-3.6,8.5v0.2c0,1,0.1,2.2,0.3,3.5        l0.2,1.1h-1.7c-0.2,0-0.4,0.1-0.4,0.3l0.9,3l2.5,1.5l2.6,5.6c0.1,0.2,0.3,0.5,0.8,1.1c0.2,0.2,0.8,0.8,0.8,0.8l0.3,0.3v3.2        C89.8,154.6,89.4,155.1,88.8,155.1z"/></g></g><g><path class="st3" d="M68.5,169.2l-2,0l0-1.2c0-3.1,2.4-4,4.3-4.8l13.2-4.5l2.4-4.5h17.6l2.7,4.5l13.2,4.5       c2,0.7,4.4,1.6,4.4,4.8l0,1.2l-2,0l0-1.1c0-1.5-0.7-2.1-3-2.9l-13.9-4.7l-2.5-4.2H87.6l-2.2,4.1l-13.9,4.7       c-2.3,0.9-3,1.4-3,2.9L68.5,169.2z"/></g><g><path class="st2" d="M95.4,161.7"/></g><g><rect class="st3" height="2" width="12" x="89.5" y="159.5"/></g><g><path class="st3" d="M126.5,192.3h-2v-17.8c0-2.8-2.2-5-5-5h-48c-2.8,0-5,2.2-5,5v17.8h-2v-17.8c0-3.9,3.1-7,7-7h48       c3.9,0,7,3.1,7,7V192.3z"/></g></g><g><g><path class="st4" d="M55,174.8H7c-3.3,0-6,2.7-6,6v11.8h60v-11.8C61,177.4,58.3,174.8,55,174.8z"/></g><g><g><path class="st5" d="M37.3,155.2L37.3,155.2C37.3,155.3,37.3,155.3,37.3,155.2C37.4,155.3,37.3,155.3,37.3,155.2        C37.3,155.3,37.4,155.2,37.3,155.2C37.3,155.2,37.3,155.2,37.3,155.2z"/></g></g><g><g><path class="st3" d="M24.3,155.1c-0.6,0-1-0.4-1-1v-2.4c-0.2-0.2-0.4-0.4-0.5-0.5c-0.6-0.6-1-1.2-1.2-1.7l-2.3-4.9l-2.7-1.6        l-1.2-4.3c0-1.1,0.8-2.1,1.8-2.4c-0.1-1-0.2-1.9-0.2-2.8v-0.2c0-3.7,1.5-7.3,4.2-10c2.6-2.6,6-4,9.6-4c3.1,0,6,1,8.4,2.9        c1.6,1.2,2.9,2.9,3.8,4.7c0.1,0.2,0.2,0.3,0.2,0.5c0.8,1.7,1.2,3.6,1.2,5.5l0,0.6c0,0.8-0.1,1.7-0.2,2.7        c0.4,0.1,0.8,0.3,1.2,0.7c0.5,0.5,0.7,1.1,0.7,1.7l0,0.2l-0.8,4.1l-3.2,1.6l-2.4,5c-0.2,0.6-0.7,1.2-1.3,1.8v2.7        c0,0.6-0.4,1-1,1c-0.6,0-1-0.4-1-1v-3.5l0.3-0.3c0.2-0.2,1-1,1.2-1.4l2.8-5.7l2.9-1.4l0.6-3c0-0.1-0.1-0.2-0.1-0.2        c0,0-0.1-0.1-0.3-0.1h-1.8l0.2-1.2c0.2-1.3,0.3-2.5,0.3-3.5l0-0.6c0-1.6-0.3-3.2-1-4.6c-0.1-0.1-0.1-0.3-0.2-0.4        c-0.8-1.5-1.9-2.9-3.2-4c-2-1.6-4.5-2.5-7.1-2.5c-3.1,0-5.9,1.2-8.2,3.4c-2.3,2.3-3.6,5.4-3.6,8.5v0.2c0,1,0.1,2.2,0.3,3.5        l0.2,1.1h-1.7c-0.2,0-0.4,0.1-0.4,0.3l0.9,3l2.5,1.5l2.6,5.6c0.1,0.2,0.3,0.5,0.8,1.1c0.2,0.2,0.8,0.8,0.8,0.8l0.3,0.3v3.2        C25.3,154.6,24.8,155.1,24.3,155.1z"/></g></g><g><path class="st3" d="M4,169.2l-2,0l0-1.2c0-3.1,2.4-4,4.3-4.8l13.2-4.5l2.4-4.5h17.6l2.7,4.5l13.2,4.5c2,0.7,4.4,1.6,4.4,4.8       l0,1.2l-2,0l0-1.1c0-1.5-0.7-2.1-3-2.9l-13.9-4.7l-2.5-4.2H23.1l-2.2,4.1l-13.9,4.7c-2.3,0.9-3,1.4-3,2.9L4,169.2z"/></g><g><path class="st2" d="M30.9,161.7"/></g><g><rect class="st3" height="2" width="12" x="25" y="159.5"/></g><g><path class="st3" d="M62,192.3h-2v-17.8c0-2.8-2.2-5-5-5H7c-2.8,0-5,2.2-5,5v17.8H0v-17.8c0-3.9,3.1-7,7-7h48c3.9,0,7,3.1,7,7       V192.3z"/></g></g><g><g><path class="st1" d="M182,12.4v-0.9H181C181.4,11.8,181.7,12.1,182,12.4z"/></g><g><g><path class="st3" d="M147,66.9h-3.6v-2c3,0,5.5-2.1,6.1-5c-11.2-5-18.5-16-18.5-28.4c0-17.1,13.9-31,31-31l0,0l0,0        c8.3,0,16.1,3.2,21.9,9.1c5.9,5.9,9.1,13.7,9.1,21.9c0,17.1-13.9,31-31,31c-1.4,0-2.7-0.1-4.1-0.3        C155.1,65.2,151.1,66.9,147,66.9z M162,2.5c-16,0-29,13-29,29c0,11.8,7,22.3,17.9,26.8l0.7,0.3l-0.1,0.7        c-0.2,2.1-1.2,4-2.7,5.4c3-0.4,5.8-1.9,8-4.2l0.4-0.4l0.5,0.1c1.4,0.2,2.9,0.3,4.3,0.3c16,0,29-13,29-29        C191.1,15.5,178,2.5,162,2.5L162,2.5z"/></g><g><rect class="st3" height="2" width="34.2" x="144.9" y="25.9"/></g><g><rect class="st3" height="2" width="34.2" x="144.9" y="30.1"/></g><g><rect class="st3" height="2" width="34.2" x="144.9" y="34.1"/></g></g></g><g><g><path class="st6" d="M35.5,89.8c-7,0-12.7-5.7-12.7-12.7c0-7,5.7-12.7,12.7-12.7s12.7,5.7,12.7,12.7       C48.2,84.1,42.5,89.8,35.5,89.8z M35.5,66.4c-5.9,0-10.7,4.8-10.7,10.7c0,5.9,4.8,10.7,10.7,10.7c5.9,0,10.7-4.8,10.7-10.7       C46.2,71.2,41.4,66.4,35.5,66.4z"/></g><g><path class="st6" d="M35.5,89.8c-4.1,0-7.3-5.6-7.3-12.7c0-7.1,3.2-12.7,7.3-12.7c2.1,0,4,1.4,5.4,4c1.3,2.4,2,5.5,2,8.8l0,0       l0,0C42.8,84.2,39.6,89.8,35.5,89.8z M35.5,66.4c-2.9,0-5.3,4.9-5.3,10.7c0,5.8,2.4,10.7,5.3,10.7s5.3-4.9,5.3-10.7l0,0       c0-3-0.6-5.8-1.7-7.8C38.1,67.4,36.8,66.4,35.5,66.4z"/></g><g><rect class="st6" height="2" width="23.5" x="23.7" y="76.1"/></g></g><g><g><g><rect class="st3" height="4" width="2" x="49.9" y="32.5"/></g><g><rect class="st3" height="4" width="2" x="49.9" y="42.5"/></g></g><g><g><rect class="st3" height="2" width="4" x="53.9" y="38.5"/></g><g><rect class="st3" height="2" width="4" x="43.9" y="38.5"/></g></g></g><g><g><g><rect class="st3" height="4" width="2" x="160" y="82.5"/></g><g><rect class="st3" height="4" width="2" x="160" y="92.5"/></g></g><g><g><rect class="st3" height="2" width="4" x="164" y="88.5"/></g><g><rect class="st3" height="2" width="4" x="154" y="88.5"/></g></g></g><g><circle class="st7" cx="182" cy="123.5" r="3"/></g><g><circle class="st7" cx="9" cy="120.5" r="2"/></g><g><circle class="st7" cx="125" cy="146.5" r="2"/></g></g><g><path class="st3" d="M137,9.5c-0.3,0-0.5-0.1-0.7-0.3C136.1,9,136,8.8,136,8.5c0-0.1,0-0.3,0.1-0.4c0.1-0.1,0.1-0.2,0.2-0.3     c0.1,0,0.1-0.1,0.2-0.1c0.1,0,0.1-0.1,0.2-0.1c0.1,0,0.1,0,0.2-0.1c0.2,0,0.4,0,0.6,0.1c0.1,0.1,0.2,0.1,0.3,0.2     c0.1,0.1,0.2,0.2,0.2,0.3c0,0.1,0.1,0.2,0.1,0.4c0,0.1,0,0.1,0,0.2c0,0.1,0,0.1-0.1,0.2c0,0.1-0.1,0.1-0.1,0.2     c0,0.1-0.1,0.1-0.1,0.1c-0.1,0.1-0.2,0.2-0.3,0.2S137.1,9.5,137,9.5z"/></g><g><path class="st3" d="M185,57c-0.3,0-0.5-0.1-0.7-0.3c-0.2-0.2-0.3-0.4-0.3-0.7c0-0.3,0.1-0.5,0.3-0.7c0.3-0.3,0.7-0.4,1.1-0.2     c0.1,0.1,0.2,0.1,0.3,0.2c0.2,0.2,0.3,0.4,0.3,0.7c0,0.3-0.1,0.5-0.3,0.7c-0.1,0.1-0.2,0.2-0.3,0.2S185.1,57,185,57z"/></g></g></g></svg>